<?xml version="1.0" encoding="utf-8"?>
<!-- Generator: Adobe Illustrator 27.5.0, SVG Export Plug-In . SVG Version: 6.00 Build 0)  -->
<svg version="1.1" xmlns="http://www.w3.org/2000/svg" xmlns:xlink="http://www.w3.org/1999/xlink" x="0px" y="0px"
	 viewBox="0 0 500 500" style="enable-background:new 0 0 500 500;" xml:space="preserve">
<g id="Background_Complete">
	<g>
		<g>
			<g>
				<path style="fill:#F5F5F5;" d="M131.431,147.93l-9.881-16.051c3.874-6.822,5.97-14.765,5.669-23.18
					c-0.864-24.201-21.184-43.119-45.384-42.254C57.634,67.31,38.716,87.629,39.581,111.83
					c0.865,24.201,21.184,43.119,45.385,42.254c10.105-0.361,19.282-4.123,26.489-10.134l-0.014,0.02L131.431,147.93z"/>
			</g>
		</g>
		<g>
			<g>
				<g>
					<g>
						<path style="fill:#263238;" d="M104.76,126.799c0,0.017-0.264,0.034-0.768,0.051c-0.55,0.012-1.283,0.028-2.201,0.047
							c-1.964,0.02-4.717,0.047-8.097,0.08c-6.882,0.019-16.304,0.045-26.712,0.074c-0.652,0-1.301,0-1.904,0l-0.253,0l0.001-0.252
							c0.031-9.978,0.058-18.926,0.078-25.441c0.033-3.195,0.06-5.791,0.079-7.644c0.019-0.863,0.034-1.552,0.046-2.071
							c0.016-0.473,0.032-0.721,0.049-0.721c0.017,0,0.033,0.248,0.049,0.721c0.012,0.52,0.027,1.208,0.046,2.071
							c0.019,1.853,0.046,4.449,0.079,7.644c0.02,6.515,0.047,15.463,0.078,25.441l-0.252-0.252c0.604,0,1.252,0,1.904,0
							c10.408,0.029,19.83,0.055,26.712,0.074c3.379,0.033,6.132,0.061,8.097,0.08c0.918,0.02,1.651,0.035,2.201,0.047
							C104.496,126.764,104.76,126.781,104.76,126.799z"/>
						<path style="fill:#E0E0E0;" d="M66.982,127.301l-2.158,0c-0.066,0-0.13-0.026-0.177-0.074
							c-0.047-0.047-0.073-0.111-0.073-0.177l0.079-25.692l0.125-9.72c0.028-0.837,0.032-0.965,0.299-0.965
							c0.266,0,0.27,0.128,0.299,0.963l0.068,4.209l0.057,5.513l0.077,24.942l1.404-0.001l26.713,0.074l10.303,0.127
							c0.897,0.03,1.012,0.033,1.012,0.301c0,0.268-0.115,0.271-1.009,0.301l-2.204,0.047l-8.1,0.08L66.982,127.301z M65.579,126.8
							l2.197-0.001l-0.795-0.003l-1.402,0.001C65.579,126.799,65.579,126.799,65.579,126.8z M65.077,126.163l-0.001,0.134h0.001h0
							L65.077,126.163z"/>
					</g>
				</g>
			</g>
			<g>
				<g>
					<g>
						<path style="fill:#263238;" d="M100.351,99.626c0.022,0.027-0.4,0.428-1.184,1.131c-0.855,0.751-1.985,1.742-3.35,2.941
							c-2.843,2.467-6.793,5.848-11.176,9.558l-0.664,0.562l-0.171,0.144l-0.163-0.152c-1.752-1.628-3.425-3.183-4.97-4.619
							l0.31,0.007c-2.926,2.414-5.44,4.487-7.3,6.021c-0.859,0.687-1.565,1.252-2.118,1.694c-0.498,0.387-0.774,0.586-0.791,0.566
							c-0.017-0.02,0.226-0.259,0.693-0.683c0.531-0.469,1.208-1.068,2.032-1.797c1.83-1.57,4.303-3.691,7.182-6.16l0.156-0.134
							l0.154,0.141c1.553,1.429,3.234,2.974,4.994,4.593l-0.334-0.007l0.664-0.562c4.383-3.71,8.369-7.048,11.271-9.445
							c1.408-1.149,2.572-2.099,3.454-2.819C99.863,99.95,100.328,99.599,100.351,99.626z"/>
						<path style="fill:#E0E0E0;" d="M68.754,117.745c-0.068,0-0.117-0.038-0.173-0.105c-0.179-0.214-0.077-0.307,0.717-1.028
							l2.035-1.799l7.341-6.297c0.096-0.083,0.238-0.08,0.332,0.005l4.821,4.435l0.326-0.276c4.242-3.591,8.246-6.946,11.274-9.447
							l3.454-2.82c1.442-1.152,1.47-1.167,1.658-0.951c0.001,0.001,0.002,0.002,0.003,0.004c0.185,0.22,0.162,0.248-1.209,1.477
							l-3.352,2.943c-2.961,2.568-6.93,5.963-11.179,9.561l-0.835,0.706c-0.096,0.082-0.238,0.079-0.331-0.008l-4.824-4.482
							l-9.092,7.446C69.137,117.563,68.902,117.745,68.754,117.745z M84.193,113.302c0.001,0.001,0.001,0.002,0.002,0.004
							l0.284-0.241c0.731-0.618,1.454-1.231,2.164-1.835c-0.713,0.601-1.436,1.213-2.167,1.831L84.193,113.302z M83.272,113.124
							l0.176,0.164c0-0.001,0-0.001,0.001-0.002L83.272,113.124z"/>
					</g>
				</g>
			</g>
			<g>
				<g>
					<g>
						<path style="fill:#263238;" d="M100.351,107.94c-0.068,0-0.129-0.942-0.174-2.476c-0.045-1.534-0.074-3.662-0.078-6.032
							l0.252,0.252c-0.136,0-0.282,0-0.429,0c-2.469,0-4.703-0.028-6.321-0.074s-2.618-0.109-2.618-0.178
							c0-0.069,1-0.132,2.618-0.178c1.617-0.046,3.852-0.074,6.321-0.074c0.147,0,0.293,0,0.429,0l0.252,0l0,0.252
							c-0.003,2.371-0.032,4.498-0.078,6.032C100.48,106.998,100.418,107.94,100.351,107.94z"/>
						<path style="fill:#E0E0E0;" d="M100.351,108.19c-0.285,0-0.344,0-0.424-2.719c-0.044-1.481-0.071-3.432-0.077-5.538
							c-2.358,0-4.577-0.027-6.256-0.074c-2.86-0.081-2.86-0.141-2.86-0.429c0-0.287,0-0.347,2.86-0.428
							c1.696-0.047,3.943-0.074,6.328-0.074l0.681,0.001c0.066,0,0.13,0.026,0.177,0.073c0.047,0.047,0.073,0.111,0.073,0.177
							l-0.001,0.252c-0.003,2.296-0.03,4.44-0.078,6.039C100.695,108.19,100.636,108.19,100.351,108.19z M100.35,99.933
							c0,0.072,0,0.145,0.001,0.216c0-0.072,0-0.144,0-0.216C100.351,99.933,100.351,99.933,100.35,99.933L100.35,99.933z
							 M98.734,99.431c0.367,0.002,0.74,0.002,1.115,0.002c-0.001-0.002-0.001-0.003,0-0.004
							C99.473,99.429,99.101,99.43,98.734,99.431z"/>
					</g>
				</g>
			</g>
		</g>
	</g>
	<g>
		<g>
			<g>
				<g>
					<path style="fill:#EBEBEB;" d="M253.675,80.669l54.785-8.371c4.592,30.054-16.36,58.564-46.414,63.156
						c-30.054,4.592-58.564-16.36-63.156-46.414c-4.592-30.054,16.36-58.564,46.414-63.156c4.785-0.731,9.645-0.832,14.456-0.301
						L253.675,80.669z"/>
				</g>
			</g>
		</g>
		<g>
			<g>
				<g>
					<path style="fill:#E0E0E0;" d="M271.451,25.758L264.8,68.226l41.687-7.828C306.486,60.398,300.356,36.597,271.451,25.758z"/>
				</g>
			</g>
		</g>
	</g>
	<g>
		<g>
			<g>
				<path style="fill:#F5F5F5;" d="M379.845,104.777c-0.341-21.314,16.643-38.933,37.859-39.275
					c21.216-0.342,38.754,16.72,39.095,38.034c0.341,21.314-16.643,38.933-37.859,39.275
					C397.724,143.153,380.186,126.091,379.845,104.777z M436.719,103.859c-0.163-10.191-8.549-18.349-18.693-18.185
					c-10.144,0.164-18.265,8.588-18.102,18.779c0.163,10.191,8.548,18.349,18.693,18.185
					C428.762,122.475,436.882,114.05,436.719,103.859z"/>
			</g>
		</g>
		<g>
			<g>
				<path style="fill:#E0E0E0;" d="M379.846,104.777c-0.341-21.314,16.643-38.933,37.859-39.275l0.323,20.172
					c-10.144,0.164-18.265,8.588-18.102,18.779c0.163,10.191,8.548,18.348,18.693,18.185l0.322,20.172
					C397.724,143.153,380.186,126.091,379.846,104.777z"/>
			</g>
		</g>
		<g>
			<g>
				<path style="fill:#EBEBEB;" d="M414.249,62.399c24.821-0.4,44.622,18.863,45.021,43.799l-23.491,0.379
					c-0.191-11.923-9.263-19.429-21.13-19.237L414.249,62.399z"/>
			</g>
		</g>
	</g>
</g>
<g id="Background_Simple" style="display:none;">
	<g style="display:inline;">
		<path style="fill:#EBEBEB;" d="M27.7,157.396l0.99,1.632c8.349,13.759,23.445,22.053,39.361,21.047
			c2.046-0.129,4.083-0.406,6.093-0.837c14.471-3.098,27.062-14.041,32.281-28.056c3.069-8.242,3.927-17.732,9.752-24.275
			c7.581-8.515,20.451-8.782,31.766-8.429c11.316,0.353,24.194,0.052,31.738-8.496c4.725-5.354,6.226-12.967,5.845-20.136
			c-1.009-18.982-14.235-35.954-31.057-44.39c-16.821-8.436-36.626-9.192-55.036-5.481c-25.79,5.199-50.316,19.476-65.058,41.527
			C19.636,103.554,15.905,133.596,27.7,157.396z"/>
	</g>
	<g style="display:inline;">
		
			<ellipse transform="matrix(0.2317 -0.9728 0.9728 0.2317 -217.041 568.3964)" style="fill:#EBEBEB;" cx="251.337" cy="421.609" rx="20.137" ry="20.137"/>
	</g>
	<g style="display:inline;">
		<path style="fill:#EBEBEB;" d="M479.895,101.799c-2.453-23.016-16.852-39.1-34.543-54.027
			c-23.93-20.191-54.703-20.778-70.21-19.875c-19.092,0-32.401,14.689-36.177,28.964s3.677,30.703,16.905,37.264
			c9.57,4.747,21.887,5.078,28.711,13.297c5.92,7.13,5.324,17.439,7.872,26.349c6.365,22.254,34.901,33.646,56.289,24.797
			C470.131,149.719,482.347,124.815,479.895,101.799z"/>
	</g>
</g>
<g id="Graphic">
	<g>
		<g>
			<rect x="38.637" y="311.2" style="fill:#EBEBEB;" width="26.56" height="61.216"/>
		</g>
		<g>
			<rect x="76.914" y="255.479" style="fill:#F5F5F5;" width="26.56" height="116.937"/>
		</g>
		<g>
			<rect x="211.554" y="258.826" style="fill:#EBEBEB;" width="26.56" height="113.59"/>
		</g>
		<g>
			<rect x="251.337" y="217.378" style="fill:#F5F5F5;" width="26.56" height="153.826"/>
		</g>
		<g>
			<rect x="394.228" y="216.165" style="fill:#F5F5F5;" width="26.56" height="156.252"/>
		</g>
		<g>
			<rect x="444.223" y="240.102" style="fill:#EBEBEB;" width="26.56" height="132.315"/>
		</g>
		<g>
			<g>
				<path style="fill:#263238;" d="M474.469,251.924c0,0-0.236-0.409-0.674-1.219c-0.446-0.806-1.069-2.026-1.949-3.591
					c-1.762-3.128-4.422-7.718-8.34-13.3c-1.95-2.796-4.255-5.81-6.944-8.967c-2.678-3.165-5.786-6.442-9.398-9.662
					c-3.614-3.21-7.722-6.403-12.481-9.132c-1.191-0.679-2.4-1.365-3.674-1.967c-1.248-0.658-2.573-1.192-3.899-1.77
					c-2.693-1.049-5.507-2.022-8.485-2.643c-2.971-0.63-6.068-1.022-9.249-1.079c-3.18-0.019-6.429,0.302-9.668,1.002
					c-3.235,0.707-6.474,1.758-9.581,3.252c-3.101,1.488-6.131,3.323-9.321,4.967c-6.344,3.346-13.13,6.494-20.519,8.576
					c-7.388,2.081-15.328,2.868-23.402,2.653c-1.011,0.004-2.022-0.083-3.037-0.121c-1.015-0.045-2.033-0.084-3.057-0.231
					c-0.51-0.067-1.027-0.102-1.534-0.197l-1.516-0.317c-1.022-0.178-2.002-0.52-3.004-0.791c-3.974-1.216-7.806-2.945-11.603-4.796
					c-3.774-1.893-7.587-3.806-11.437-5.738c-3.867-1.871-7.84-3.672-12.051-4.806c-8.464-2.126-17.41-3.595-26.408-2.639
					c-4.486,0.448-8.927,1.635-13.065,3.56c-4.114,1.982-7.879,4.718-11.21,7.934c-6.705,6.443-11.74,14.23-16.755,21.757
					c-4.999,7.561-9.818,15.095-14.997,22.199c-5.186,7.088-10.701,13.794-16.925,19.547c-3.107,2.878-6.391,5.497-9.816,7.831
					c-3.44,2.313-7.032,4.308-10.708,5.997c-3.669,1.712-7.481,2.987-11.313,3.915c-1.91,0.506-3.854,0.776-5.775,1.091
					c-1.939,0.177-3.862,0.398-5.785,0.367c-7.701,0.165-15.092-1.945-21.515-5.134c-6.474-3.144-12.301-6.932-18.271-9.857
					c-5.936-2.981-12.106-4.875-18.146-5.606c-12.107-1.556-23.306,0.997-31.926,5.285c-8.652,4.379-14.818,10.304-18.967,15.667
					c-4.169,5.398-6.475,10.231-7.804,13.552c-0.317,0.838-0.596,1.578-0.838,2.216c-0.229,0.642-0.387,1.192-0.533,1.629
					c-0.282,0.876-0.439,1.321-0.439,1.321s0.123-0.455,0.388-1.337c0.138-0.439,0.288-0.993,0.509-1.639
					c0.235-0.642,0.507-1.386,0.815-2.229c1.3-3.339,3.582-8.201,7.742-13.637c4.139-5.401,10.309-11.376,18.997-15.804
					c8.656-4.336,19.913-6.932,32.103-5.39c6.078,0.723,12.308,2.624,18.277,5.611c6.002,2.93,11.837,6.711,18.281,9.829
					c6.396,3.163,13.693,5.234,21.323,5.065c1.904,0.03,3.81-0.192,5.731-0.369c1.904-0.315,3.831-0.583,5.725-1.088
					c3.8-0.923,7.582-2.192,11.224-3.895c3.649-1.681,7.217-3.665,10.633-5.966c3.402-2.322,6.663-4.927,9.751-7.79
					c6.189-5.727,11.68-12.41,16.851-19.483c5.164-7.09,9.977-14.618,14.977-22.185c5.015-7.528,10.062-15.344,16.827-21.847
					c3.362-3.245,7.173-6.017,11.346-8.027c4.197-1.953,8.7-3.153,13.233-3.605c9.096-0.963,18.091,0.523,26.591,2.661
					c4.274,1.154,8.266,2.969,12.145,4.847c3.85,1.934,7.662,3.849,11.435,5.745c3.786,1.849,7.598,3.57,11.528,4.775
					c0.99,0.268,1.961,0.609,2.966,0.784l1.494,0.314c0.499,0.094,1.005,0.127,1.506,0.194c0.999,0.146,2.015,0.186,3.027,0.231
					c1.012,0.038,2.019,0.126,3.025,0.122c8.04,0.22,15.925-0.555,23.268-2.614c7.343-2.061,14.105-5.186,20.441-8.517
					c3.189-1.637,6.202-3.458,9.345-4.962c3.137-1.502,6.408-2.559,9.674-3.267c3.27-0.701,6.55-1.02,9.757-0.995
					c3.208,0.063,6.33,0.464,9.323,1.105c2.999,0.632,5.831,1.618,8.539,2.679c1.333,0.584,2.665,1.125,3.918,1.789
					c1.281,0.608,2.494,1.301,3.689,1.986c4.777,2.755,8.892,5.971,12.509,9.202c3.615,3.241,6.72,6.537,9.393,9.719
					c2.684,3.173,4.981,6.202,6.921,9.011c3.898,5.609,6.533,10.22,8.266,13.366c0.867,1.574,1.475,2.803,1.905,3.617
					C474.265,251.499,474.469,251.924,474.469,251.924z"/>
			</g>
		</g>
		<g>
			<circle style="fill:#FF725E;" cx="263.59" cy="198.959" r="6.831"/>
		</g>
		<g>
			<path style="fill:#FF725E;" d="M263.59,211.624c-6.842,0-12.408-5.566-12.408-12.408c0-6.842,5.566-12.408,12.408-12.408
				s12.408,5.566,12.408,12.408C275.999,206.058,270.432,211.624,263.59,211.624z M263.59,187.808
				c-6.29,0-11.408,5.118-11.408,11.408c0,6.291,5.118,11.408,11.408,11.408c6.29,0,11.408-5.118,11.408-11.408
				C274.999,192.926,269.88,187.808,263.59,187.808z"/>
		</g>
		<g>
			<polygon style="fill:#EBEBEB;" points="266.874,175.395 266.509,161.411 270.001,161.467 263.479,153.497 256.957,161.541 
				260.573,161.563 260.933,175.359 			"/>
		</g>
		<g>
			<path style="fill:#E0E0E0;" d="M253.675,182.891v2.567h-2.292v-2.499c-2.269-0.137-4.446-0.848-5.707-1.833l1.261-2.796
				c1.146,0.848,2.796,1.467,4.446,1.627v-3.827c-2.544-0.619-5.386-1.467-5.386-4.744c0-2.43,1.765-4.515,5.386-4.928v-2.544h2.292
				v2.498c1.719,0.138,3.393,0.596,4.652,1.398l-1.146,2.819c-1.169-0.665-2.36-1.054-3.507-1.192v3.896
				c2.544,0.596,5.34,1.444,5.34,4.675C259.015,180.393,257.274,182.456,253.675,182.891z M251.383,172.761v-3.254
				c-1.215,0.275-1.696,0.939-1.696,1.696C249.688,172.005,250.375,172.44,251.383,172.761z M255.326,178.285
				c0-0.802-0.665-1.238-1.65-1.582v3.163C254.822,179.614,255.326,179.018,255.326,178.285z"/>
		</g>
		<g>
			<path style="fill:#FF725E;" d="M283.617,139.061c0,1.765-1.295,3.303-4.142,3.303c-1.381,0-2.833-0.384-3.801-1.068l0.911-1.765
				c0.754,0.569,1.794,0.897,2.833,0.897c1.153,0,1.865-0.484,1.865-1.296c0-0.783-0.513-1.295-2.321-1.295h-2.548l0.513-5.609
				h6.079v1.85h-4.157l-0.157,1.894h0.811C282.45,135.971,283.617,137.295,283.617,139.061z"/>
			<path style="fill:#FF725E;" d="M284.561,137.21c0-3.289,1.822-5.153,4.271-5.153c2.463,0,4.271,1.865,4.271,5.153
				c0,3.289-1.808,5.154-4.271,5.154C286.383,142.364,284.561,140.498,284.561,137.21z M290.782,137.21
				c0-2.264-0.797-3.203-1.95-3.203c-1.139,0-1.936,0.939-1.936,3.203c0,2.264,0.798,3.203,1.936,3.203
				C289.985,140.413,290.782,139.473,290.782,137.21z"/>
			<path style="fill:#FF725E;" d="M294.061,134.861c0-1.68,1.024-2.748,2.477-2.748c1.452,0,2.463,1.054,2.463,2.748
				c0,1.694-1.011,2.747-2.463,2.747C295.086,137.609,294.061,136.541,294.061,134.861z M297.577,134.861
				c0-1.068-0.412-1.581-1.039-1.581c-0.612,0-1.039,0.527-1.039,1.581c0,1.053,0.427,1.58,1.039,1.58
				C297.165,136.441,297.577,135.928,297.577,134.861z M302.474,132.227h1.694l-6.805,9.965h-1.694L302.474,132.227z
				 M300.837,139.559c0-1.68,1.025-2.748,2.463-2.748c1.452,0,2.477,1.068,2.477,2.748c0,1.68-1.024,2.748-2.477,2.748
				C301.862,142.307,300.837,141.239,300.837,139.559z M304.339,139.559c0-1.053-0.413-1.58-1.039-1.58
				c-0.612,0-1.039,0.512-1.039,1.58s0.427,1.58,1.039,1.58C303.926,141.139,304.339,140.613,304.339,139.559z"/>
		</g>
		<g>
			<circle style="fill:#FF725E;" cx="52.648" cy="283.228" r="6.831"/>
		</g>
		<g>
			<path style="fill:#FF725E;" d="M52.648,295.893c-6.842,0-12.408-5.566-12.408-12.408s5.566-12.408,12.408-12.408
				s12.408,5.566,12.408,12.408S59.49,295.893,52.648,295.893z M52.648,272.077c-6.29,0-11.408,5.118-11.408,11.408
				c0,6.29,5.118,11.408,11.408,11.408s11.408-5.118,11.408-11.408C64.056,277.195,58.939,272.077,52.648,272.077z"/>
		</g>
		<g>
			<polygon style="fill:#EBEBEB;" points="49.253,243.495 49.618,257.479 46.126,257.422 52.648,265.392 59.17,257.349 
				55.554,257.327 55.194,243.531 			"/>
		</g>
		<g>
			<path style="fill:#E0E0E0;" d="M41.204,268.924v2.567h-2.292v-2.499c-2.269-0.137-4.446-0.848-5.707-1.833l1.261-2.796
				c1.146,0.848,2.796,1.467,4.446,1.627v-3.827c-2.544-0.618-5.386-1.467-5.386-4.744c0-2.43,1.765-4.515,5.386-4.928v-2.544h2.292
				v2.498c1.719,0.138,3.392,0.596,4.653,1.398l-1.146,2.818c-1.169-0.664-2.361-1.054-3.507-1.191v3.896
				c2.544,0.596,5.34,1.443,5.34,4.676C46.544,266.426,44.802,268.489,41.204,268.924z M38.912,258.794v-3.255
				c-1.215,0.275-1.696,0.939-1.696,1.696C37.216,258.037,37.903,258.473,38.912,258.794z M42.854,264.318
				c0-0.802-0.664-1.237-1.65-1.581v3.162C42.35,265.647,42.854,265.051,42.854,264.318z"/>
		</g>
		<g>
			<path style="fill:#E0E0E0;" d="M443.151,194.77v2.566h-2.292v-2.498c-2.27-0.137-4.446-0.848-5.707-1.833l1.261-2.796
				c1.146,0.848,2.796,1.467,4.446,1.628v-3.828c-2.544-0.619-5.386-1.467-5.386-4.744c0-2.429,1.765-4.515,5.386-4.928v-2.544
				h2.292v2.498c1.719,0.138,3.392,0.596,4.652,1.398l-1.146,2.819c-1.168-0.665-2.36-1.054-3.506-1.192v3.897
				c2.544,0.596,5.34,1.444,5.34,4.675C448.491,192.271,446.749,194.334,443.151,194.77z M440.859,184.639v-3.254
				c-1.215,0.275-1.696,0.939-1.696,1.696C439.163,183.883,439.85,184.319,440.859,184.639z M444.8,190.163
				c0-0.802-0.664-1.238-1.649-1.581v3.163C444.296,191.492,444.8,190.896,444.8,190.163z"/>
		</g>
		<g>
			<g>
				<g>
					<g>
						<path style="fill:#EBEBEB;" d="M457.374,196.853c2.025-0.849,3.465-2.938,3.477-5.398c0.013-3.223-2.426-5.847-5.449-5.861
							c-3.021-0.014-5.482,2.588-5.496,5.811c-0.01,2.483,1.44,4.596,3.487,5.449c-8.421,1.269-8.039,10.421-8.039,10.421
							l19.913,0.092C465.268,207.366,465.722,198.114,457.374,196.853z"/>
					</g>
				</g>
			</g>
		</g>
		<g>
			<g>
				<g>
					<g>
						<g>
							<path style="fill:#FF725E;" d="M295.315,110.265c-0.57,0-1.086-0.39-1.224-0.968l-2.815-11.834h-7.83l-2.712,11.289
								c-0.163,0.676-0.842,1.093-1.518,0.93c-0.676-0.162-1.092-0.842-0.93-1.518l2.689-11.197c0.084-1.13,0.963-2.022,2.033-2.022
								h8.706c1.07,0,1.95,0.893,2.032,2.023l2.794,11.746c0.161,0.677-0.257,1.355-0.933,1.516
								C295.509,110.254,295.411,110.265,295.315,110.265z"/>
						</g>
					</g>
				</g>
				<g>
					<g>
						<g>
							<rect x="283.523" y="95.081" style="fill:#FF725E;" width="7.635" height="13.925"/>
						</g>
					</g>
				</g>
				<g>
					<g>
						<g>
							<path style="fill:#FF725E;" d="M285.052,125.546c-0.834,0-1.511-0.676-1.511-1.511v-16.451c0-0.834,0.676-1.511,1.511-1.511
								c0.834,0,1.511,0.676,1.511,1.511v16.451C286.563,124.869,285.887,125.546,285.052,125.546z"/>
						</g>
					</g>
				</g>
				<g>
					<g>
						<g>
							<path style="fill:#FF725E;" d="M289.625,125.546c-0.834,0-1.511-0.676-1.511-1.511v-16.451c0-0.834,0.676-1.511,1.511-1.511
								c0.834,0,1.511,0.676,1.511,1.511v16.451C291.135,124.869,290.459,125.546,289.625,125.546z"/>
						</g>
					</g>
				</g>
				<g>
					<g>
						<g>
							<path style="fill:#FF725E;" d="M291.026,90.457c0,2.036-1.65,3.686-3.686,3.686s-3.686-1.65-3.686-3.686
								c0-2.036,1.65-3.686,3.686-3.686S291.026,88.421,291.026,90.457z"/>
						</g>
					</g>
				</g>
				<g>
					<g>
						<g>
							<polygon style="fill:#FF725E;" points="280.749,113.156 283.654,102.043 291.026,102.043 293.862,113.156 							"/>
						</g>
					</g>
				</g>
			</g>
		</g>
		<g>
			<g>
				<path style="fill:#455A64;" d="M220.751,153.13c0,1.495-1.097,2.796-3.508,2.796c-1.169,0-2.398-0.325-3.218-0.904l0.771-1.495
					c0.639,0.482,1.519,0.76,2.399,0.76c0.976,0,1.579-0.41,1.579-1.097c0-0.663-0.434-1.097-1.965-1.097h-2.158l0.434-4.749h5.147
					v1.567h-3.52l-0.132,1.604h0.687C219.763,150.514,220.751,151.635,220.751,153.13z"/>
				<path style="fill:#455A64;" d="M221.547,151.562c0-2.784,1.543-4.363,3.616-4.363c2.085,0,3.616,1.579,3.616,4.363
					c0,2.785-1.531,4.364-3.616,4.364C223.09,155.926,221.547,154.347,221.547,151.562z M226.815,151.562
					c0-1.917-0.675-2.712-1.651-2.712c-0.964,0-1.639,0.795-1.639,2.712c0,1.917,0.675,2.712,1.639,2.712
					C226.14,154.275,226.815,153.479,226.815,151.562z"/>
				<path style="fill:#455A64;" d="M229.587,149.574c0-1.422,0.868-2.327,2.097-2.327c1.23,0,2.086,0.892,2.086,2.327
					c0,1.435-0.856,2.327-2.086,2.327C230.455,151.9,229.587,150.996,229.587,149.574z M232.564,149.574
					c0-0.904-0.35-1.338-0.88-1.338c-0.518,0-0.88,0.446-0.88,1.338c0,0.892,0.362,1.338,0.88,1.338
					C232.214,150.911,232.564,150.477,232.564,149.574z M236.711,147.344h1.435l-5.762,8.438h-1.434L236.711,147.344z
					 M235.325,153.552c0-1.422,0.868-2.327,2.085-2.327c1.229,0,2.097,0.904,2.097,2.327c0,1.422-0.868,2.326-2.097,2.326
					C236.192,155.878,235.325,154.974,235.325,153.552z M238.29,153.552c0-0.892-0.35-1.338-0.88-1.338
					c-0.519,0-0.88,0.434-0.88,1.338c0,0.904,0.361,1.338,0.88,1.338C237.941,154.889,238.29,154.444,238.29,153.552z"/>
			</g>
			<g>
				<g>
					<g>
						<g>
							<path style="fill:#455A64;" d="M229.06,129.11c-0.679,0-1.23-0.55-1.23-1.23v-11.277h-9.092v11.277
								c0,0.679-0.551,1.23-1.23,1.23s-1.23-0.55-1.23-1.23v-11.59c0-1.184,0.945-2.147,2.107-2.147h9.797
								c1.162,0,2.107,0.963,2.107,2.147v11.59C230.29,128.559,229.739,129.11,229.06,129.11z"/>
						</g>
					</g>
				</g>
				<g>
					<g>
						<g>
							<rect x="219.563" y="114.277" style="fill:#455A64;" width="7.459" height="13.603"/>
						</g>
					</g>
				</g>
				<g>
					<g>
						<g>
							<path style="fill:#455A64;" d="M221.057,141.375c-0.815,0-1.476-0.568-1.476-1.269v-13.821c0-0.701,0.661-1.269,1.476-1.269
								c0.815,0,1.476,0.568,1.476,1.269v13.821C222.533,140.807,221.872,141.375,221.057,141.375z"/>
						</g>
					</g>
				</g>
				<g>
					<g>
						<g>
							<path style="fill:#455A64;" d="M225.524,141.375c-0.815,0-1.476-0.568-1.476-1.269v-13.821c0-0.701,0.661-1.269,1.476-1.269
								c0.815,0,1.476,0.568,1.476,1.269v13.821C227,140.807,226.34,141.375,225.524,141.375z"/>
						</g>
					</g>
				</g>
				<g>
					<g>
						<g>
							<path style="fill:#455A64;" d="M226.893,109.759c0,1.989-1.612,3.601-3.601,3.601c-1.989,0-3.601-1.612-3.601-3.601
								c0-1.989,1.612-3.601,3.601-3.601C225.281,106.158,226.893,107.771,226.893,109.759z"/>
						</g>
					</g>
				</g>
			</g>
		</g>
		<g>
			<path style="fill:#FF725E;" d="M462.143,222.939c0,3.773-3.058,6.831-6.831,6.831s-6.831-3.058-6.831-6.831
				c0-3.773,3.058-6.831,6.831-6.831S462.143,219.166,462.143,222.939z"/>
		</g>
		<g>
			<path style="fill:#FF725E;" d="M455.312,235.604c-6.842,0-12.408-5.566-12.408-12.408s5.566-12.408,12.408-12.408
				c6.842,0,12.408,5.566,12.408,12.408S462.154,235.604,455.312,235.604z M455.312,211.787c-6.29,0-11.408,5.118-11.408,11.408
				c0,6.291,5.118,11.408,11.408,11.408c6.29,0,11.408-5.118,11.408-11.408C466.72,216.905,461.602,211.787,455.312,211.787z"/>
		</g>
	</g>
</g>
<g id="Character_2">
	<g>
		<g>
			<g>
				<path style="fill:#263238;" d="M299.323,404.648L299.323,404.648c0,0-0.636,34.835-0.636,47.75h109.881v-36.741l-3.476-9.708
					l-1.254-7.837L299.323,404.648z"/>
			</g>
			<g>
				<g>
					<path style="fill:#455A64;" d="M328.289,451c-0.144,0.005-0.417-4.133-0.609-9.243c-0.193-5.112-0.233-9.258-0.089-9.264
						c0.144-0.005,0.417,4.133,0.609,9.244C328.393,446.847,328.433,450.995,328.289,451z"/>
				</g>
			</g>
			<g>
				<g>
					<path style="fill:#455A64;" d="M332.048,416.841c-0.009-0.027,0.206-0.148,0.644-0.212c0.431-0.061,1.103-0.042,1.833,0.309
						c0.712,0.331,1.517,1.092,1.664,2.208c0.159,1.061-0.277,2.401-1.441,3.046c-1.192,0.617-2.575,0.171-3.296-0.651
						c-0.373-0.415-0.568-0.95-0.565-1.45c-0.004-0.501,0.177-0.938,0.394-1.28c0.451-0.689,1.09-1.006,1.531-1.065
						c0.449-0.066,0.686,0.04,0.679,0.063c-0.004,0.047-0.246,0.017-0.633,0.134c-0.382,0.109-0.911,0.44-1.263,1.059
						c-0.364,0.597-0.439,1.551,0.213,2.219c0.597,0.658,1.778,1.002,2.693,0.513c0.92-0.499,1.326-1.625,1.211-2.525
						c-0.095-0.928-0.737-1.603-1.359-1.944C333.048,416.564,332.043,416.946,332.048,416.841z"/>
				</g>
			</g>
			<g>
				<g>
					<path style="fill:#455A64;" d="M392.545,419.199c-0.038,0.057-0.855-0.4-2.117-1.23c-1.262-0.83-2.962-2.045-4.76-3.489
						c-1.798-1.446-3.349-2.845-4.431-3.9c-1.083-1.054-1.704-1.753-1.656-1.803c0.052-0.054,0.763,0.551,1.905,1.531
						c1.141,0.981,2.722,2.328,4.509,3.766c1.788,1.436,3.443,2.69,4.646,3.594C391.843,418.572,392.587,419.137,392.545,419.199z"
						/>
				</g>
			</g>
			<g>
				<g>
					<path style="fill:#455A64;" d="M403.822,430.64c0.008,0.016-0.159,0.109-0.485,0.272c-0.381,0.183-0.856,0.412-1.437,0.691
						c-0.32,0.15-0.669,0.313-1.045,0.488c-0.388,0.165-0.821,0.313-1.281,0.489c-0.926,0.332-1.963,0.772-3.166,1.077
						c-0.598,0.17-1.223,0.348-1.873,0.533c-0.653,0.18-1.35,0.293-2.062,0.45c-1.422,0.34-2.974,0.509-4.6,0.727
						c-3.266,0.311-6.89,0.369-10.662-0.024c-3.768-0.44-7.292-1.287-10.412-2.305c-1.54-0.568-3.018-1.072-4.331-1.714
						c-0.661-0.309-1.316-0.571-1.914-0.889c-0.594-0.323-1.164-0.633-1.711-0.93c-1.108-0.561-2.023-1.217-2.854-1.743
						c-0.41-0.272-0.801-0.511-1.143-0.757c-0.329-0.254-0.633-0.489-0.913-0.705c-0.506-0.399-0.919-0.726-1.251-0.988
						c-0.282-0.23-0.425-0.358-0.413-0.372c0.011-0.014,0.176,0.086,0.478,0.289c0.346,0.24,0.778,0.54,1.306,0.906
						c0.286,0.203,0.598,0.425,0.935,0.664c0.349,0.232,0.745,0.458,1.161,0.717c0.841,0.5,1.762,1.129,2.873,1.665
						c0.547,0.285,1.119,0.583,1.713,0.892c0.597,0.306,1.252,0.557,1.91,0.854c1.309,0.62,2.779,1.103,4.308,1.654
						c3.098,0.982,6.588,1.807,10.318,2.243c3.734,0.389,7.319,0.346,10.556,0.064c1.612-0.203,3.152-0.354,4.565-0.673
						c0.708-0.147,1.401-0.249,2.051-0.416c0.647-0.172,1.27-0.338,1.866-0.497c1.201-0.28,2.238-0.693,3.168-0.997
						c0.462-0.161,0.898-0.295,1.289-0.446c0.381-0.16,0.733-0.308,1.057-0.444c0.595-0.242,1.082-0.441,1.472-0.6
						C403.631,430.686,403.813,430.624,403.822,430.64z"/>
				</g>
			</g>
		</g>
		<g>
			<g>
				<path style="fill:#263238;" d="M319.133,170.435c-3.42,0.215-6.781-2.459-7.34-5.84c-0.558-3.381,1.765-6.994,5.073-7.89
					c-2.005-2.275-2.355-5.856-0.827-8.475c1.527-2.619,4.816-4.079,7.783-3.454c0.276-2.981,2.207-5.755,4.906-7.049
					c2.699-1.294,6.071-1.062,8.568,0.59c3.445-2.664,8.775-2.501,12.051,0.37c2.931-0.389,6.019,1.318,7.248,4.006
					c1.23,2.689,0.502,6.141-1.709,8.103"/>
			</g>
			<g>
				<g>
					<g>
						<g>
							<path style="fill:#937263;" d="M318.069,171.364c2.006-15.333,15.451-26.552,30.896-25.785l1.535,0.076
								c16.499,1.789,24.198,16.801,21.953,33.245l-5.134,54.984l-0.276,2.669l-38.565,5.758l0.752-14.043
								c0,0-15.785-3.264-15.191-19.178C314.324,201.404,316.203,185.625,318.069,171.364z"/>
						</g>
					</g>
					<g>
						<g>
							<g>
								<g>
									<path style="fill:#5E483F;" d="M329.098,228.24c0,0,10.126,1.116,21.143-5.064c0,0-5.47,11.203-21.269,8.982
										L329.098,228.24z"/>
								</g>
							</g>
						</g>
					</g>
					<g>
						<g>
							<g>
								<g>
									<g>
										<g>
											<g>
												<path style="fill:#263238;" d="M320.708,183.858c-0.102,1.197,0.828,2.271,2.076,2.4
													c1.246,0.129,2.341-0.734,2.443-1.931c0.102-1.197-0.827-2.272-2.074-2.402
													C321.905,181.796,320.81,182.661,320.708,183.858z"/>
											</g>
										</g>
									</g>
								</g>
							</g>
						</g>
					</g>
					<g>
						<g>
							<g>
								<g>
									<g>
										<g>
											<g>
												<g>
													<path style="fill:#263238;" d="M321.102,179.315c0.267,0.31,2.05-0.878,4.495-0.75
														c2.443,0.093,4.174,1.439,4.454,1.153c0.137-0.126-0.123-0.675-0.876-1.283c-0.741-0.605-2.025-1.22-3.548-1.29
														c-1.523-0.067-2.831,0.43-3.596,0.967C321.25,178.653,320.969,179.176,321.102,179.315z"/>
												</g>
											</g>
										</g>
									</g>
								</g>
							</g>
						</g>
					</g>
					<g>
						<g>
							<g>
								<g>
									<g>
										<g>
											<g>
												<path style="fill:#263238;" d="M343.787,186.058c-0.102,1.197,0.828,2.271,2.076,2.4
													c1.246,0.13,2.341-0.734,2.443-1.932c0.102-1.197-0.828-2.272-2.074-2.401
													C344.984,183.995,343.888,184.861,343.787,186.058z"/>
											</g>
										</g>
									</g>
								</g>
							</g>
						</g>
					</g>
					<g>
						<g>
							<g>
								<g>
									<g>
										<g>
											<g>
												<g>
													<path style="fill:#263238;" d="M345.104,180.965c0.267,0.31,2.053-0.877,4.496-0.749
														c2.442,0.093,4.174,1.439,4.454,1.153c0.137-0.126-0.121-0.675-0.877-1.282c-0.741-0.605-2.024-1.22-3.547-1.29
														c-1.523-0.067-2.831,0.43-3.596,0.967C345.255,180.302,344.972,180.825,345.104,180.965z"/>
												</g>
											</g>
										</g>
									</g>
								</g>
							</g>
						</g>
					</g>
					<g>
						<g>
							<g>
								<g>
									<g>
										<g>
											<g>
												<path style="fill:#263238;" d="M335.333,198.651c0.019-0.139-1.488-0.477-3.934-0.914
													c-0.621-0.095-1.206-0.249-1.29-0.68c-0.124-0.458,0.17-1.118,0.509-1.829c0.662-1.481,1.354-3.034,2.082-4.661
													c2.9-6.639,5.031-12.11,4.763-12.225c-0.269-0.114-2.836,5.174-5.735,11.813c-0.7,1.638-1.369,3.199-2.006,4.693
													c-0.271,0.698-0.718,1.482-0.446,2.433c0.145,0.475,0.586,0.836,0.981,0.964c0.394,0.142,0.745,0.166,1.053,0.2
													C333.78,198.701,335.316,198.788,335.333,198.651z"/>
											</g>
										</g>
									</g>
								</g>
							</g>
						</g>
					</g>
					<g>
						<g>
							<g>
								<g>
									<g>
										<g>
											<g>
												<path style="fill:#263238;" d="M342.442,200.698c-0.396-0.043-0.533,2.61-2.897,4.38
													c-2.361,1.777-5.174,1.338-5.213,1.708c-0.045,0.165,0.604,0.547,1.796,0.639c1.169,0.098,2.897-0.193,4.344-1.275
													c1.443-1.087,2.115-2.598,2.259-3.681C342.888,201.363,342.624,200.692,342.442,200.698z"/>
											</g>
										</g>
									</g>
								</g>
							</g>
						</g>
					</g>
					<g>
						<g>
							<g>
								<path style="fill:#263238;" d="M344.948,171.355c0.208,0.676,2.664,0.483,5.514,0.971c2.861,0.431,5.131,1.385,5.541,0.808
									c0.184-0.277-0.188-0.922-1.091-1.612c-0.895-0.688-2.343-1.372-4.055-1.649c-1.712-0.274-3.302-0.079-4.367,0.294
									C345.416,170.539,344.86,171.035,344.948,171.355z"/>
							</g>
						</g>
					</g>
					<g>
						<g>
							<g>
								<path style="fill:#263238;" d="M322.351,172.286c0.402,0.576,2.114,0.084,4.141,0.157c2.028,0.003,3.721,0.559,4.144-0.002
									c0.187-0.273-0.055-0.843-0.778-1.406c-0.712-0.56-1.926-1.05-3.319-1.077c-1.393-0.025-2.624,0.418-3.357,0.952
									C322.439,171.446,322.175,172.006,322.351,172.286z"/>
							</g>
						</g>
					</g>
					<g>
						<g>
							<path style="fill:#263238;" d="M319.961,164.145c0,0,4.69-9.752,9.608-11.838c5.954-2.525,8.14,3.981,13.758,2.708
								c5.618-1.274,11.303-3.698,16.753,0.867c5.965,4.996,2.898,8.141,2.93,15.217c0.131,28.688,4.954,37.039,7.11,23.636
								c0.236-1.468,4.392-2.439,5.309-8.647c1.189-8.05,1.988-17.856,0.468-23.686c-1.281-4.914-3.874-8.394-8.638-12.325
								c-7.52-6.206-18.241-6.864-25.561-6.493C334.378,143.956,319.917,151.641,319.961,164.145z"/>
						</g>
					</g>
					<g>
						<g>
							<path style="fill:#937263;" d="M369.128,194.253c0.222-2.45,2.434-4.283,4.868-3.929c2.952,0.429,6.169,2.278,5.669,8.398
								c-0.888,10.856-11.604,7.726-11.597,7.413C368.072,205.923,368.716,198.793,369.128,194.253z"/>
						</g>
					</g>
					<g>
						<g>
							<path style="fill:#5E483F;" d="M370.764,202.244c0.051-0.031,0.179,0.148,0.486,0.321c0.3,0.168,0.828,0.31,1.411,0.145
								c1.181-0.327,2.296-2.069,2.509-4.022c0.108-0.985-0.022-1.943-0.308-2.751c-0.266-0.821-0.734-1.418-1.303-1.568
								c-0.564-0.18-1.001,0.132-1.159,0.427c-0.17,0.292-0.119,0.514-0.178,0.528c-0.033,0.025-0.218-0.201-0.094-0.642
								c0.063-0.212,0.211-0.458,0.483-0.645c0.278-0.191,0.67-0.268,1.068-0.191c0.832,0.126,1.523,0.958,1.838,1.844
								c0.361,0.894,0.53,1.972,0.408,3.079c-0.249,2.182-1.536,4.138-3.142,4.463c-0.78,0.137-1.398-0.146-1.706-0.428
								C370.762,202.508,370.725,202.26,370.764,202.244z"/>
						</g>
					</g>
				</g>
				<g>
					<path style="fill:#263238;" d="M369.962,173.175c-1.46,0.894-3.001,1.814-4.711,1.898c-1.71,0.084-3.607-0.99-3.811-2.69
						c-0.091-0.763,0.137-1.632-0.331-2.242c-0.559-0.727-1.666-0.563-2.582-0.512c-3.178,0.178-6.304-2.219-6.957-5.334
						c-0.866,1.167-2.745,1.021-3.927,0.174c-1.181-0.847-1.903-2.174-2.803-3.315c-0.901-1.141-2.192-2.186-3.64-2.053
						c-0.81,0.074-1.586,0.516-2.391,0.404c-1.422-0.198-2.036-1.905-2.181-3.333c-0.146-1.428-0.232-3.09-1.403-3.92
						c-1.085-0.77-2.558-0.429-3.883-0.301c-1.324,0.129-3.006-0.264-3.279-1.567c-0.143-0.683,0.182-1.378,0.585-1.948
						c1.825-2.581,5.577-3.582,8.446-2.253c1.242-3.54,4.741-6.17,8.488-6.378c3.746-0.208,7.515,2.018,9.142,5.399
						c2.402-1.971,5.785-2.68,8.776-1.84c2.991,0.84,5.51,3.207,6.534,6.141c2.68-0.564,5.644,0.608,7.212,2.853
						c1.568,2.245,1.649,5.432,0.197,7.753c1.899,1.214,3.476,3.239,3.405,5.492c-0.071,2.253-2.375,4.386-4.518,3.686
						c0.79,1.796-0.042,4.139-1.788,5.033c-1.747,0.895-4.134,0.201-5.13-1.489"/>
				</g>
				<g>
					<g>
						<path style="fill:#455A64;" d="M336.128,149.343c-0.009,0-0.011,0.068-0.007,0.199c0.008,0.131,0.006,0.329,0.04,0.584
							c0.075,0.507,0.24,1.261,0.685,2.135c0.449,0.861,1.162,1.865,2.284,2.691c1.097,0.833,2.626,1.5,4.391,1.492l-0.172-0.25
							c-0.384,0.913-0.347,2.034,0.069,3.013c0.39,0.994,1.039,1.89,1.728,2.767c0.354,0.422,0.656,0.912,1.155,1.308
							c0.485,0.381,1.078,0.617,1.692,0.725c1.218,0.218,2.621-0.093,3.562-1.08l-0.401-0.136c0.169,2.175,1.291,4.399,3.179,5.815
							c0.996,0.798,2.253,1.318,3.513,1.348c1.259,0.05,2.447-0.261,3.557-0.597l-0.284-0.142c0.517,1.381,1.358,2.578,2.407,3.484
							c1.028,0.903,2.43,1.473,3.737,1.22c2.594-0.415,4.402-2.465,4.845-4.458l-0.252,0.102c1.239,0.757,2.602,0.892,3.709,0.734
							c1.122-0.148,2.018-0.588,2.663-1.033c0.648-0.454,1.042-0.935,1.281-1.268c0.222-0.349,0.315-0.543,0.304-0.549
							c-0.053-0.048-0.401,0.809-1.687,1.665c-0.64,0.408-1.516,0.806-2.594,0.923c-1.064,0.128-2.354-0.031-3.497-0.754
							l-0.198-0.126l-0.054,0.228c-0.438,1.858-2.177,3.768-4.58,4.126c-1.183,0.216-2.415-0.292-3.39-1.147
							c-0.979-0.853-1.78-2.007-2.26-3.305l-0.076-0.206l-0.209,0.063c-1.093,0.328-2.239,0.618-3.402,0.568
							c-1.165-0.033-2.293-0.496-3.243-1.253c-1.783-1.339-2.837-3.42-3.007-5.48l-0.043-0.518l-0.358,0.381
							c-0.794,0.846-2.051,1.147-3.146,0.953c-0.55-0.094-1.076-0.301-1.5-0.63c-0.414-0.315-0.73-0.801-1.089-1.227
							c-0.689-0.862-1.32-1.724-1.693-2.65c-0.396-0.916-0.432-1.901-0.101-2.729l0.102-0.255l-0.274,0.005
							c-1.664,0.029-3.138-0.579-4.211-1.363c-1.097-0.774-1.811-1.729-2.275-2.552
							C336.118,150.472,336.207,149.322,336.128,149.343z"/>
					</g>
				</g>
			</g>
		</g>
		<g>
			<g>
				<path style="fill:#E0E0E0;" d="M389.081,313.071l14.435,13.912l-4.664-26.608l29.299-9.268c0,0,7.781,36.517,9.135,45.153
					c2.429,15.498-0.553,37.526-14.995,39.077c-15.623,1.677-27.42-13.732-34.928-23.844c-5.772-7.774-15.086-21.366-15.086-21.366
					L389.081,313.071"/>
			</g>
			<g>
				<path style="fill:#E0E0E0;" d="M277.461,289.406c-4.702,14.805-11.275,17.043-13.871,59.451
					c-0.506,8.27,5.7,18.871,13.092,22.612c7.392,3.741,20.274-0.85,24.457-8.001l4.152-31.363L277.461,289.406z"/>
			</g>
			<g>
				<g>
					<path style="fill:#263238;" d="M296.882,351.349c-0.158,0.048-0.966-2.959-2.885-6.232c-1.892-3.29-4.102-5.483-3.982-5.596
						c0.045-0.046,0.655,0.442,1.516,1.366c0.86,0.921,1.946,2.3,2.917,3.969c0.967,1.67,1.626,3.296,2,4.5
						C296.823,350.561,296.945,351.333,296.882,351.349z"/>
				</g>
			</g>
			<g>
				<path style="fill:#E0E0E0;" d="M270.379,306.474c0.247-0.877,14.708-40.238,19.322-48.854
					c5.519-10.307,17.121-14.865,24.323-15.309c7.202-0.444,84.274,5.698,84.274,5.698s21.588,5.423,25.956,24.956
					c5.477,24.495,9.885,48.651,9.885,48.651l-38.628,8.341l-4.545-11.444l-72.581,16.194l-17.723-26.216L270.379,306.474z"/>
			</g>
			<g>
				<g>
					<path style="fill:#E0E0E0;" d="M403.839,398.111l-1.878-65.616l1.429-82.241l-30.104-13.272l-3.374-12.983l-35.14,16.613
						l-7.361-8.132l-3.082,9.165l-7.7,2.517l-15.15,29.878l-0.662,52.396c0,0-3.664,61.76-1.495,78.212
						c0,0,5.675,9.417,23.138,9.838C357.862,415.341,403.839,398.111,403.839,398.111"/>
				</g>
				<g>
					<g>
						<path style="fill:#FFFFFF;" d="M373.257,308.338c-0.018,0.14-1.779,0.032-4.615-0.202c-3.207-0.267-6.943-0.578-11.071-0.922
							c-4.132-0.309-7.872-0.588-11.08-0.828c-2.837-0.215-4.593-0.384-4.589-0.525c0.004-0.135,1.768-0.216,4.62-0.182
							c2.851,0.033,6.789,0.195,11.128,0.537c4.337,0.344,8.251,0.802,11.073,1.217
							C371.544,307.847,373.275,308.204,373.257,308.338z"/>
					</g>
				</g>
				<g>
					<g>
						<path style="fill:#FFFFFF;" d="M372.768,313.73c-0.018,0.14-1.779,0.032-4.615-0.202c-3.207-0.267-6.944-0.578-11.071-0.922
							c-4.132-0.309-7.872-0.588-11.08-0.827c-2.837-0.215-4.593-0.384-4.589-0.525c0.004-0.135,1.768-0.216,4.62-0.182
							c2.851,0.033,6.789,0.195,11.128,0.537c4.337,0.343,8.251,0.802,11.073,1.217C371.054,313.239,372.785,313.596,372.768,313.73
							z"/>
					</g>
				</g>
				<g>
					<g>
						<path style="fill:#FFFFFF;" d="M372.278,319.122c-0.018,0.14-1.779,0.032-4.615-0.202c-3.207-0.267-6.944-0.578-11.071-0.922
							c-4.132-0.309-7.872-0.588-11.081-0.828c-2.837-0.215-4.593-0.384-4.589-0.525c0.004-0.135,1.768-0.216,4.62-0.182
							c2.851,0.033,6.789,0.195,11.128,0.537c4.337,0.343,8.251,0.802,11.073,1.217
							C370.564,318.631,372.295,318.988,372.278,319.122z"/>
					</g>
				</g>
				<g>
					<g>
						<path style="fill:#FFFFFF;" d="M371.788,324.514c-0.018,0.14-1.779,0.032-4.615-0.202c-3.207-0.267-6.944-0.578-11.071-0.922
							c-4.132-0.309-7.871-0.588-11.081-0.827c-2.837-0.215-4.593-0.384-4.589-0.525c0.004-0.135,1.768-0.216,4.62-0.182
							c2.851,0.033,6.789,0.195,11.128,0.537c4.337,0.343,8.251,0.802,11.073,1.217C370.075,324.023,371.805,324.38,371.788,324.514
							z"/>
					</g>
				</g>
				<g>
					<g>
						<path style="fill:#263238;" d="M322.432,416.171c-0.016,0.001-0.037-0.143-0.064-0.424c-0.026-0.34-0.056-0.751-0.094-1.251
							c-0.067-1.184-0.157-2.789-0.271-4.814c-0.189-4.273-0.456-10.303-0.784-17.715c-0.557-14.963-1.266-35.648-1.031-58.519
							c0.139-11.436,0.523-22.345,1.618-32.223c1.139-9.866,2.836-18.639,4.364-25.971c1.552-7.329,2.971-13.217,3.961-17.283
							c0.494-1.965,0.885-3.524,1.174-4.673c0.131-0.484,0.239-0.881,0.329-1.209c0.079-0.271,0.127-0.408,0.143-0.404
							c0.016,0.004-0.002,0.148-0.051,0.427c-0.065,0.335-0.143,0.739-0.239,1.231c-0.247,1.16-0.582,2.732-1.004,4.715
							c-0.882,4.091-2.203,10.001-3.67,17.336c-1.443,7.335-3.069,16.108-4.156,25.93c-1.041,9.822-1.4,20.712-1.539,32.13
							c-0.235,22.839,0.37,43.519,0.758,58.485c0.204,7.417,0.371,13.45,0.488,17.726c0.041,2.028,0.073,3.636,0.097,4.822
							c0.001,0.502,0.001,0.914,0.002,1.255C322.458,416.025,322.448,416.17,322.432,416.171z"/>
					</g>
				</g>
				<g>
					<g>
						<path style="fill:#263238;" d="M345.078,287.498c-0.025-0.035,0.681-0.012,2.039,0.061c1.474,0.088,3.462,0.207,5.947,0.356
							c5.31,0.363,12.73,0.87,21.67,1.482l0.411,0.028l-0.031,0.416c-0.749,9.93-1.646,21.811-2.614,34.645l-0.017,0.23
							l-0.185,0.134c-1.014,0.735-2.111,1.48-3.237,2.211c-1.991,1.292-4.015,2.488-6.094,3.532
							c-2.086,0.993-4.23,1.988-6.605,2.125c-2.349,0.141-4.591-0.554-6.55-1.518c-1.958-0.992-3.708-2.227-5.299-3.543
							c-0.796-0.659-1.564-1.329-2.296-2.015c-0.34-0.306-0.802-0.765-1.028-1.242c-0.281-0.472-0.424-0.969-0.577-1.456
							c-0.496-1.965-0.544-3.881-0.532-5.715c0.072-3.67,0.478-7.05,0.915-10.118c0.894-6.136,1.958-11.036,2.721-14.412
							c0.388-1.687,0.713-2.991,0.948-3.872C344.898,287.949,345.045,287.487,345.078,287.498c0.033,0.011-0.046,0.478-0.218,1.375
							c-0.194,0.99-0.447,2.288-0.764,3.907c-0.644,3.394-1.6,8.308-2.4,14.427c-0.389,3.057-0.752,6.424-0.786,10.029
							c0.002,1.794,0.079,3.676,0.549,5.471c0.273,0.918,0.611,1.648,1.368,2.271c0.727,0.672,1.485,1.325,2.268,1.964
							c1.564,1.28,3.27,2.464,5.137,3.4c1.869,0.909,3.949,1.532,6.07,1.396c2.104-0.117,4.189-1.061,6.219-2.038
							c2.029-1.022,4.025-2.203,5.993-3.48c1.11-0.721,2.205-1.464,3.191-2.177l-0.202,0.364c1.033-12.83,1.989-24.706,2.788-34.632
							l0.379,0.443c-8.83-0.774-16.159-1.417-21.404-1.877c-2.513-0.241-4.523-0.434-6.013-0.577
							c-0.638-0.07-1.164-0.127-1.601-0.175C345.286,287.547,345.09,287.516,345.078,287.498z"/>
					</g>
				</g>
				<g>
					<g>
						<path style="fill:#E0E0E0;" d="M369.912,223.999c0,0-3.929,1.137-14.02,6.521c-9.885,5.274-21.12,10.092-21.12,10.092
							l0.854,15.867l37.397-18.774"/>
					</g>
				</g>
				<g>
					<g>
						<polyline style="fill:#E0E0E0;" points="327.411,232.48 334.772,240.612 330.838,257.621 324.283,242.248 						"/>
					</g>
				</g>
				<g>
					<g>
						<path style="fill:#263238;" d="M374.472,298.792c-0.022,0.276-7.054-0.048-15.705-0.723
							c-8.654-0.675-15.65-1.445-15.629-1.721c0.021-0.275,7.052,0.048,15.706,0.723
							C367.496,297.746,374.493,298.517,374.472,298.792z"/>
					</g>
				</g>
				<g style="opacity:0.3;">
					<g>
						<path d="M341.637,324.311c1.694,2.786,3.268,6.613,5.578,8.913c2.311,2.3,5.311,4.069,8.565,4.261
							c2.866,0.169,5.69-0.892,8.123-2.415c3.93-2.459,6.343-6.332,8.097-10.624c0.247-0.313-5.622,3.604-8.81,5.3
							c-3.188,1.696-5.421,2.228-9.02,1.936C349.451,331.301,345.219,327.41,341.637,324.311"/>
					</g>
				</g>
				<g style="opacity:0.3;">
					<path d="M334.635,242.367c-0.325,0.244-2.369,19.629-2.369,19.629l37.485-22.648l-34.124,17.131L334.635,242.367z"/>
				</g>
			</g>
			<g>
				<path style="fill:#FF725E;" d="M328.229,261.276c0,0-9.128,36.773-12.536,81.834c-1.446,19.12-2.518,44.457-2.518,44.457
					l8.527,10.561l13.07-11.564c0,0-0.567-53.828,0.117-71.846c0.563-14.827-1.774-52.656-1.774-52.656L328.229,261.276z"/>
			</g>
			<g>
				<g>
					<path style="fill:#263238;" d="M394.489,285.212c0.035-0.006,0.158,0.54,0.348,1.532c0.196,1.085,0.453,2.501,0.761,4.208
						c0.627,3.647,1.464,8.517,2.389,13.9c0.946,5.428,1.752,10.353,2.281,13.925c0.267,1.786,0.472,3.232,0.601,4.234
						c0.129,1.002,0.184,1.558,0.149,1.564s-0.158-0.54-0.349-1.532c-0.197-1.085-0.454-2.501-0.764-4.207
						c-0.638-3.645-1.489-8.513-2.431-13.896c-0.937-5.43-1.709-10.358-2.24-13.93c-0.243-1.717-0.444-3.143-0.598-4.235
						C394.508,285.775,394.453,285.218,394.489,285.212z"/>
				</g>
			</g>
			<g>
				<g>
					<path style="fill:#263238;" d="M405.631,252.548c0.058,0.073-1.015,0.909-2.533,2.472c-1.519,1.558-3.425,3.913-5.002,6.835
						c-1.568,2.929-2.481,5.818-2.942,7.944c-0.467,2.129-0.572,3.484-0.665,3.476c-0.036-0.003-0.037-0.342-0.008-0.958
						c0.02-0.616,0.121-1.504,0.312-2.591c0.374-2.172,1.247-5.136,2.844-8.118c1.606-2.976,3.596-5.34,5.202-6.85
						c0.801-0.758,1.486-1.333,1.989-1.689C405.325,252.706,405.609,252.519,405.631,252.548z"/>
				</g>
			</g>
			<g>
				<polygon style="fill:#FF725E;" points="334.889,248.199 331.542,246.893 328.369,252.336 327.796,261.276 332.266,261.996 
					335.626,256.479 				"/>
			</g>
			<g>
				<g>
					<path style="fill:#263238;" d="M298.688,274.796c0.144,0,0.26,22.033,0.26,49.207c0,27.183-0.117,49.211-0.26,49.211
						s-0.26-22.029-0.26-49.211C298.427,296.829,298.544,274.796,298.688,274.796z"/>
				</g>
			</g>
			<g>
				<g>
					<path style="fill:#263238;" d="M335.125,240.474c0.064,0.045-0.721,1.246-1.909,3.234c-1.187,1.987-2.757,4.774-4.255,7.969
						c-0.122,0.262-0.243,0.523-0.356,0.766l-0.234,0.503l-0.237-0.499c-1.443-3.036-2.484-5.861-3.129-7.924
						c-0.324-1.032-0.557-1.871-0.699-2.455c-0.143-0.584-0.201-0.91-0.168-0.92c0.072-0.021,0.473,1.237,1.206,3.26
						c0.73,2.023,1.821,4.805,3.261,7.815l-0.471,0.004c0.113-0.245,0.235-0.508,0.357-0.772c1.508-3.218,3.141-5.997,4.414-7.943
						c0.636-0.974,1.179-1.743,1.568-2.264C334.863,240.729,335.096,240.454,335.125,240.474z"/>
				</g>
			</g>
			<g>
				<g>
					<path style="fill:#263238;" d="M373.286,236.982c0.008,0.016-0.169,0.122-0.514,0.309c-0.397,0.208-0.899,0.47-1.517,0.793
						c-1.381,0.715-3.274,1.696-5.587,2.894c-4.713,2.451-11.168,5.943-18.32,9.765c-4.356,2.321-8.482,4.472-12.071,6.267
						l-0.331,0.166l-0.004-0.367c-0.046-4.655-0.084-8.577-0.112-11.414c0.003-1.333,0.005-2.409,0.006-3.217
						c0.009-0.744,0.027-1.142,0.052-1.143c0.025,0,0.056,0.397,0.093,1.14c0.031,0.808,0.072,1.883,0.122,3.215
						c0.074,2.836,0.177,6.757,0.3,11.411l-0.335-0.202c3.568-1.827,7.68-3.995,12.034-6.315c7.15-3.821,13.638-7.264,18.398-9.634
						c2.378-1.188,4.317-2.121,5.665-2.748c0.635-0.287,1.152-0.521,1.56-0.706C373.086,237.04,373.278,236.966,373.286,236.982z"/>
				</g>
			</g>
			<g>
				<g>
					<path style="fill:#263238;" d="M303.209,249.21c0.075,0.046-0.513,1.043-1.27,2.738c-0.76,1.692-1.63,4.116-2.146,6.897
						c-0.507,2.784-0.556,5.358-0.449,7.21c0.104,1.854,0.299,2.995,0.213,3.011c-0.035,0.007-0.117-0.272-0.234-0.784
						c-0.124-0.511-0.246-1.263-0.346-2.198c-0.204-1.868-0.214-4.497,0.304-7.333c0.525-2.834,1.47-5.287,2.325-6.96
						c0.426-0.839,0.808-1.498,1.105-1.931C303.003,249.422,303.179,249.191,303.209,249.21z"/>
				</g>
			</g>
			<g>
				<g>
					<path style="fill:#263238;" d="M331.449,262.574c-0.077,0.122-0.927-0.277-1.898-0.891c-0.972-0.614-1.697-1.21-1.62-1.331
						c0.077-0.122,0.927,0.277,1.898,0.891C330.8,261.857,331.526,262.453,331.449,262.574z"/>
				</g>
			</g>
			<g>
				<g>
					<path style="fill:#263238;" d="M333.056,260.391c-0.132,0.058-1.149-1.969-2.273-4.526c-1.124-2.558-1.928-4.678-1.796-4.736
						c0.132-0.058,1.149,1.968,2.273,4.526C332.384,258.212,333.188,260.333,333.056,260.391z"/>
				</g>
			</g>
			<g>
				<g>
					<path style="fill:#263238;" d="M426.856,350.599c-0.007,0.003-0.052-0.074-0.133-0.226c-0.09-0.174-0.205-0.398-0.351-0.681
						c-0.155-0.309-0.341-0.681-0.559-1.116c-0.278-0.415-0.596-0.89-0.954-1.424c-1.466-2.128-3.994-4.954-7.502-8.151
						c-3.493-3.214-7.928-6.83-12.914-10.964c-2.48-2.084-5.121-4.271-7.766-6.706c-2.638-2.435-5.355-5.049-7.793-8.106
						l0.376,0.018c-4.694,4.909-9.782,10.23-15.053,15.743c-0.689,0.72-1.375,1.436-2.011,2.101l0.026-0.327
						c5.691,8.319,10.863,16.371,16.306,23.121c2.696,3.393,5.476,6.422,8.187,9.15c2.697,2.736,5.336,5.16,7.96,7.089
						c5.201,3.927,10.428,5.615,14.06,5.525c0.452,0,0.881,0.02,1.281,0.005c0.398-0.043,0.771-0.083,1.119-0.12
						c0.345-0.037,0.665-0.071,0.96-0.102c0.285-0.064,0.545-0.123,0.78-0.176c0.447-0.097,0.798-0.173,1.062-0.231
						c0.24-0.049,0.365-0.07,0.367-0.062c0.003,0.008-0.117,0.046-0.353,0.112c-0.262,0.07-0.611,0.163-1.054,0.281
						c-0.235,0.061-0.495,0.128-0.78,0.201c-0.296,0.039-0.617,0.081-0.964,0.127c-0.35,0.045-0.726,0.093-1.127,0.145
						c-0.404,0.023-0.837,0.012-1.294,0.019c-3.672,0.154-9.001-1.508-14.272-5.432c-2.659-1.926-5.327-4.348-8.047-7.08
						c-2.729-2.72-5.539-5.757-8.255-9.153c-5.484-6.758-10.68-14.818-16.365-23.123l-0.12-0.175l0.146-0.153
						c0.636-0.665,1.322-1.381,2.011-2.101c5.277-5.507,10.37-10.823,15.069-15.727l0.198-0.206l0.178,0.225
						c2.401,3.025,5.097,5.634,7.717,8.069c2.626,2.434,5.255,4.63,7.723,6.723c4.963,4.155,9.38,7.806,12.854,11.061
						c3.488,3.237,5.996,6.113,7.428,8.286c0.347,0.545,0.656,1.031,0.926,1.455c0.205,0.446,0.381,0.827,0.526,1.143
						c0.13,0.291,0.233,0.522,0.313,0.701C426.832,350.515,426.863,350.596,426.856,350.599z"/>
				</g>
			</g>
		</g>
		<g style="opacity:0.3;">
			<g>
				<path d="M354.228,339.559c-0.197-0.823-0.448-1.727-1.158-2.188c-1.244-0.808-2.797,0.255-4.071,1.014
					c-3.348,1.995-7.491,1.924-11.385,1.754c-11.742-0.512-23.488-1.384-35.079-3.33c-5.677-0.953-11.399-2.194-16.477-4.907
					c-5.077-2.713-9.498-7.089-11.131-12.609l-2.712-1.473c2.102,4.486,1.886,17.187,2.64,22.083
					c0.754,4.896,2.923,8.385,7.637,9.907c1.894,0.611,3.933,0.519,5.92,0.421c19.329-0.958,38.832-0.088,58.161-1.045
					c2.762-0.137,5.955-0.511,7.443-2.842C355.268,344.38,354.769,341.823,354.228,339.559z"/>
			</g>
		</g>
		<g>
			<g>
				<path style="fill:#937263;" d="M366.425,295.679c0,0-9.154-10.482-10.8-9.323c-1.646,1.158-4.02,1.795-1.721,6.048
					c2.299,4.253,6.101,6.626,6.814,10.235c0.713,3.609-0.088,12.308,3.943,15.261c4.031,2.953,9.64,10.612,9.64,10.612l13.975-14.6
					l-5.531-4.168c0,0,3.346-8.369,3.316-12.737c-0.03-4.369-2.983-9.826-2.983-9.826s-0.488-3.526-3.001-5.697
					c0,0-0.346-2.807-1.102-5.574c-0.755-2.767-10.793-12.449-10.793-12.449s-3.292,2.317-1.136,5.849
					c2.156,3.532,4.594,6.383,4.594,6.383l-9.175-1.103c0,0-1.173,4.606,3.874,5.9s6.245,3.141,6.245,3.141l-6.257,2.07
					c0,0,0.292,3.692,3.027,3.776c2.735,0.084,2.735,0.084,2.735,0.084L366.425,295.679z"/>
			</g>
			<g>
				<g>
					<path style="fill:#5E483F;" d="M368.812,289.406c1.238-0.04,2.983-0.096,6.055-0.195l0.094-0.003l0.062,0.076
						c0.98,1.2,2.042,2.794,2.397,4.827c0.358,2.027-0.093,4.314-1.236,6.337c-1.309,2.185-3.227,3.662-4.789,5.076
						c-1.589,1.397-2.895,2.804-3.593,4.225c-0.715,1.414-0.869,2.728-0.799,3.604c0.059,0.886,0.281,1.348,0.229,1.366
						c-0.017,0.007-0.075-0.104-0.172-0.325c-0.085-0.224-0.201-0.563-0.259-1.02c-0.136-0.903-0.033-2.289,0.67-3.786
						c0.688-1.511,2.018-2.992,3.603-4.42c1.561-1.444,3.426-2.914,4.662-4.985c1.077-1.904,1.526-4.099,1.206-5.992
						c-0.31-1.913-1.293-3.465-2.221-4.662l0.156,0.072C371.14,289.634,368.802,289.546,368.812,289.406z"/>
				</g>
			</g>
			<g>
				<g>
					<path style="fill:#5E483F;" d="M381.592,287.031c-0.083,0.04-0.341-0.494-0.931-1.198c-0.586-0.704-1.606-1.494-2.959-1.862
						c-1.346-0.379-2.652-0.363-3.583-0.344c-0.936,0.033-1.522,0.081-1.535,0.003c-0.011-0.064,0.555-0.241,1.505-0.37
						c0.945-0.113,2.305-0.196,3.755,0.21c0.72,0.206,1.372,0.528,1.902,0.909c0.53,0.384,0.922,0.831,1.205,1.228
						C381.503,286.418,381.64,287.013,381.592,287.031z"/>
				</g>
			</g>
			<g>
				<g>
					<path style="fill:#5E483F;" d="M379.093,280.132c-0.113,0.109-1.471-1.261-3.497-2.441c-2.016-1.199-3.872-1.722-3.831-1.874
						c0.017-0.13,1.999,0.18,4.096,1.425C377.965,278.472,379.198,280.055,379.093,280.132z"/>
				</g>
			</g>
			<g>
				<path style="fill:#263238;" d="M267.132,293.992l12.048,45.515c0.668,2.523,2.974,4.262,5.583,4.211l62.388-1.225
					c3.55-0.07,6.16-3.353,5.428-6.827l-9.188-43.591c-0.552-2.619-2.863-4.493-5.539-4.493h-65.786
					C268.716,287.582,266.275,290.754,267.132,293.992z"/>
			</g>
			<g>
				<path style="fill:#937263;" d="M261.885,304.273c-1.371-1.512-1.251-4.015-0.028-5.649c1.223-1.634,3.314-2.454,5.354-2.531
					c2.04-0.076,4.048,0.507,5.954,1.236c2.354,0.9,4.619,2.03,6.754,3.37c1.508,0.946,3.069,2.178,3.364,3.934
					s-1.612,3.759-3.159,2.878c2.01,0.847,4.036,2.972,4.359,5.194c0.323,2.221-0.864,3.415-3.016,4.055
					c1.637,0.636,2.683,2.692,1.934,4.28c-0.788,1.67-3.09,2.128-4.814,1.468c-1.724-0.659-2.997-2.116-4.197-3.52
					c1.227,2.105,1.66,4.66,1.197,7.053c-4.749-1.622-8.393-6.097-9.02-11.076c-2.329-1.752-3.107-5.271-1.733-7.841
					c-1.916-0.599-4.086-3.519-3.936-5.521"/>
			</g>
			<g>
				<g>
					<path style="fill:#5E483F;" d="M281.426,316.781c-0.054,0.059-0.803-0.593-2.056-1.571c-1.252-0.951-3.074-2.267-5.413-2.77
						c-1.158-0.245-2.309-0.245-3.294,0.004c-0.988,0.245-1.808,0.71-2.404,1.201c-1.206,1.003-1.475,2.021-1.565,1.974
						c-0.026-0.008,0.003-0.262,0.183-0.684c0.179-0.42,0.535-0.999,1.139-1.566c0.604-0.56,1.463-1.096,2.525-1.388
						c1.061-0.296,2.296-0.309,3.524-0.049c2.48,0.537,4.332,1.961,5.538,2.994C280.813,315.99,281.469,316.735,281.426,316.781z"/>
				</g>
			</g>
			<g>
				<g>
					<path style="fill:#5E483F;" d="M280.9,307.726c-0.029,0.069-1-0.307-2.495-1.04c-0.75-0.357-1.637-0.791-2.655-1.16
						c-1.013-0.355-2.192-0.666-3.416-0.885c-1.229-0.21-2.424-0.238-3.469-0.034c-1.044,0.201-1.927,0.635-2.57,1.117
						c-1.314,0.977-1.59,2.053-1.678,2.002c-0.026-0.008,0.005-0.272,0.199-0.71c0.197-0.432,0.588-1.029,1.251-1.581
						c0.657-0.553,1.584-1.054,2.7-1.297c1.115-0.245,2.38-0.228,3.653-0.01c1.276,0.23,2.443,0.553,3.497,0.949
						c1.043,0.407,1.924,0.882,2.655,1.282C280.027,307.176,280.927,307.662,280.9,307.726z"/>
				</g>
			</g>
		</g>
		<g style="opacity:0.3;">
			<g>
				<path d="M402.827,370.678c-0.496-1.802,0.155-1.808-1.276-3.011c-5.504-4.628-10.787-10.625-14.448-15.204
					c-4.447-5.562-11.372-16.847-11.372-16.847l-1.639-0.498c1.415,8.129,5.508,15.506,9.537,22.707
					c2.2,3.932,4.424,7.898,7.415,11.266c2.992,3.368,6.855,6.137,11.274,7.016C403.283,374.507,403.322,372.48,402.827,370.678z"/>
			</g>
		</g>
	</g>
</g>
<g id="Character_1">
	<g>
		<g>
			<path style="fill:#263238;" d="M93.609,264.813c0.025,0.001,0.048,0.348,0.069,1.007c0.015,0.728,0.034,1.685,0.058,2.88
				c0.007,0.632,0.016,1.326,0.024,2.079c0.034,0.759,0.116,1.582,0.178,2.467c0.149,1.768,0.227,3.788,0.572,5.998
				c0.145,1.109,0.297,2.268,0.455,3.475c0.173,1.206,0.428,2.45,0.649,3.744c0.417,2.593,1.058,5.328,1.675,8.216
				c1.34,5.755,3.009,12.039,4.805,18.627c1.795,6.592,3.413,12.905,4.669,18.699c0.566,2.911,1.164,5.665,1.513,8.282
				c0.19,1.305,0.412,2.56,0.554,3.776c0.12,1.217,0.235,2.386,0.345,3.505c0.275,2.228,0.271,4.263,0.342,6.042
				c0.022,0.89,0.067,1.719,0.063,2.481c-0.034,0.756-0.064,1.452-0.093,2.086c-0.063,1.195-0.113,2.153-0.152,2.882
				c-0.043,0.658-0.077,1.002-0.101,1c-0.025-0.002-0.039-0.349-0.042-1.008c0.005-0.728,0.01-1.685,0.018-2.88
				c0.009-0.632,0.019-1.325,0.03-2.078c-0.016-0.759-0.08-1.584-0.121-2.47c-0.108-1.771-0.139-3.792-0.445-6.007
				c-0.124-1.111-0.254-2.273-0.389-3.482c-0.155-1.208-0.39-2.456-0.592-3.753c-0.372-2.6-0.99-5.341-1.571-8.236
				c-1.287-5.768-2.921-12.06-4.715-18.651c-1.796-6.588-3.449-12.888-4.758-18.669c-0.602-2.902-1.223-5.65-1.617-8.26
				c-0.21-1.302-0.452-2.552-0.611-3.766c-0.143-1.214-0.28-2.381-0.412-3.497c-0.314-2.222-0.358-4.256-0.469-6.033
				c-0.043-0.89-0.106-1.717-0.119-2.479c0.014-0.757,0.026-1.453,0.038-2.088c0.032-1.197,0.057-2.156,0.076-2.885
				C93.56,265.157,93.585,264.812,93.609,264.813z"/>
		</g>
		<g>
			<g>
				<path style="fill:#FFBE9D;" d="M231.125,312.732l14.141-50.328l17.412,3.164c0,0-4.172,4.753-4.172,9.126
					s-2.891,45.56-2.891,45.56s-17.318,5.073-24.315-6.647"/>
			</g>
			<g>
				<g>
					<path style="fill:#FFBE9D;" d="M245.265,262.404c0,0-1.94-5.25-0.403-9.792c1.537-4.542,6.753-8.061,6.429-10.788
						c-0.324-2.727,2.445-9.264,4.943-8.75c2.498,0.514,4.344,2.978,2.231,7.177c-2.112,4.199-3.334,8.539-3.334,8.539
						s26.006-13.546,28.13-13.84c2.124-0.294,4.249-0.587,4.799,1.106c0.551,1.693-4.641,3.862-4.641,3.862l-6.98,9.096
						c0,0-1.85,5.72-4.853,9.778c-3.003,4.058-8.911,6.775-8.911,6.775l-7.583,9.126
						C255.095,274.694,243.596,270.766,245.265,262.404z"/>
				</g>
				<g>
					<g>
						<path style="fill:#EB996E;" d="M282.981,240.282c-0.042,0.039-0.23-0.154-0.639-0.349c-0.405-0.19-1.059-0.365-1.848-0.225
							c-1.577,0.287-3.586,1.648-5.235,3.556c-1.667,1.929-2.73,4.032-3.513,5.532c-0.77,1.514-1.258,2.454-1.353,2.413
							c-0.086-0.038,0.236-1.045,0.895-2.626c0.672-1.566,1.685-3.762,3.431-5.786c1.743-2.002,3.882-3.386,5.711-3.589
							c0.915-0.091,1.648,0.196,2.053,0.487C282.895,239.992,283.013,240.259,282.981,240.282z"/>
					</g>
				</g>
				<g>
					<g>
						<path style="fill:#EB996E;" d="M273.45,243.685c0.098,0.171-1.578,1.316-3.744,2.556c-2.166,1.241-4.001,2.108-4.099,1.936
							c-0.098-0.171,1.578-1.315,3.744-2.556C271.516,244.381,273.352,243.514,273.45,243.685z"/>
					</g>
				</g>
				<g>
					<g>
						<path style="fill:#EB996E;" d="M259.667,249.53c-0.084-0.167,1.965-0.864,4.372-0.041c2.417,0.797,3.629,2.589,3.461,2.671
							c-0.154,0.148-1.489-1.279-3.689-1.994C261.627,249.41,259.701,249.741,259.667,249.53z"/>
					</g>
				</g>
			</g>
		</g>
		<g>
			<g>
				<path style="fill:#FF725E;" d="M205.336,315.635c-0.126,0.75,19.702,27.514,26.133,32.531
					c15.776,12.308,27.382-4.336,26.219-18.431c-1.163-14.095-42.151-80.305-42.151-80.305l-13.269,31.268L205.336,315.635z"/>
			</g>
			<g>
				<g>
					<g>
						<polygon style="fill:#263238;" points="101.56,242.339 137.617,233.869 141.021,228.124 177.185,228.701 185.587,237.694 
							209.694,249.525 189.461,334.465 121.579,337.954 						"/>
					</g>
				</g>
				<g>
					<g>
						<path style="fill:#FF725E;" d="M142.821,227.007l-13.495,8.378l-28.35,6.158l8.977,113.815c0,0-26.529,51.735-30.588,96.679
							l71.535-0.004c0,0,6.775-57.131,6.063-80.056c-0.712-22.925-0.27-62.981-0.27-62.981l-18.463-68.954L142.821,227.007z"/>
					</g>
				</g>
				<g>
					<g>
						<path style="fill:#FF725E;" d="M179.713,235.428l-2.523-7.772l9.417,9.482c0,0,5.587,1.939,6.784,2.385
							c9.374,3.494,22.148,9.909,22.148,9.909l-15.974,101.168c0,0,21.425,57.122,19.691,101.437c0,0-48.97,0.815-68.356-0.004
							l5.23-145.256c0,0,17.001-20.071,19.831-40.263C178.789,246.323,179.713,235.428,179.713,235.428z"/>
					</g>
				</g>
				<g>
					<g>
						<g>
							<path style="fill:#263238;" d="M155.259,322.746c-0.017,0.015-0.231-0.196-0.627-0.613c-0.434-0.47-1.003-1.085-1.715-1.855
								c-1.524-1.69-3.656-4.056-6.301-6.99c-5.368-6.043-12.807-14.419-21.32-24.004l-0.13-0.146l0.053-0.191
								c1.084-3.904,2.221-8.002,3.389-12.21c0.508-1.822,1.01-3.623,1.504-5.396l0.342,0.469c-4.948-0.19-9.698-0.373-14.142-0.545
								l-0.482-0.018l0.167-0.45c3.835-10.323,7.121-19.168,9.477-25.51c1.17-3.076,2.108-5.542,2.782-7.312
								c0.317-0.799,0.571-1.44,0.768-1.937c0.181-0.438,0.283-0.661,0.302-0.654c0.019,0.007-0.047,0.244-0.192,0.695
								c-0.17,0.507-0.39,1.16-0.663,1.975c-0.628,1.786-1.503,4.276-2.594,7.38c-2.294,6.366-5.492,15.243-9.226,25.602
								l-0.315-0.468c4.445,0.158,9.195,0.327,14.144,0.503l0.468,0.017l-0.126,0.452c-0.493,1.773-0.994,3.575-1.5,5.397
								c-1.174,4.206-2.318,8.303-3.407,12.205l-0.077-0.337c8.436,9.652,15.807,18.087,21.127,24.174
								c2.577,2.994,4.655,5.407,6.14,7.132c0.674,0.804,1.213,1.445,1.624,1.935C155.093,322.492,155.275,322.732,155.259,322.746z
								"/>
						</g>
					</g>
				</g>
				<g>
					<g>
						<g>
							<path style="fill:#263238;" d="M151.005,452.036c-0.205-0.007,0.736-32.787,2.101-73.207
								c1.366-40.434,2.64-73.196,2.845-73.189c0.205,0.007-0.736,32.78-2.102,73.214
								C152.483,419.275,151.209,452.043,151.005,452.036z"/>
						</g>
					</g>
				</g>
				<g>
					<g>
						<g>
							<path style="fill:#263238;" d="M186.517,236.761c0.022-0.003,0.077,0.275,0.162,0.81c0.087,0.602,0.201,1.382,0.342,2.354
								c0.281,2.133,0.671,5.104,1.155,8.786c0.934,7.564,2.227,18.035,3.707,30.025l0.06,0.483l-0.482-0.083
								c-2.51-0.432-5.146-0.886-7.838-1.349l0.401-0.517c0.475,1.062,0.983,2.197,1.495,3.341c1.006,2.253,1.996,4.471,2.937,6.578
								l0.096,0.214l-0.152,0.176c-8.601,9.971-16.211,18.795-21.732,25.195c-2.722,3.107-4.925,5.623-6.504,7.425
								c-0.738,0.82-1.328,1.478-1.78,1.98c-0.412,0.447-3.107,2.472-3.124,2.457c-0.018-0.015,2.642-2.07,3.02-2.546
								c0.427-0.524,0.985-1.209,1.682-2.064c1.538-1.838,3.684-4.403,6.334-7.571c5.473-6.441,13.018-15.32,21.545-25.355
								l-0.056,0.389c-0.943-2.106-1.935-4.323-2.943-6.576c-0.511-1.145-1.019-2.28-1.493-3.342l-0.284-0.636l0.686,0.119
								c2.691,0.469,5.326,0.928,7.835,1.365l-0.422,0.4c-1.378-12.002-2.582-22.484-3.451-30.055
								c-0.395-3.693-0.713-6.672-0.942-8.811c-0.091-0.978-0.164-1.763-0.22-2.368
								C186.507,237.047,186.495,236.764,186.517,236.761z"/>
						</g>
					</g>
				</g>
				<g>
					<g>
						<path style="fill:#263238;" d="M146.5,405.745c-1.442-1.905-4.355-3.083-5.845-1.215l0.056-0.031
							c-1.44,1.153-2.185,3.21-1.553,4.964c0.809,2.248,3.741,3.46,5.877,2.391C147.172,410.786,147.942,407.651,146.5,405.745z"/>
					</g>
				</g>
				<g>
					<g>
						<path style="fill:#263238;" d="M148.727,367.284c-1.442-1.905-4.354-3.083-5.845-1.216l0.056-0.03
							c-1.44,1.153-2.185,3.21-1.553,4.965c0.809,2.248,3.741,3.46,5.877,2.391C149.399,372.324,150.169,369.189,148.727,367.284z"
							/>
					</g>
				</g>
				<g style="opacity:0.3;">
					<g>
						<g>
							<path d="M116.324,270.918c0.24,0.773,5.316,1.548,6.203,3.692c0.887,2.144,0.452,4.592-0.178,6.826
								c-0.63,2.233-1.45,4.485-1.293,6.8c0.281,4.153,3.557,7.393,6.62,10.211c8.563,7.876,19.019,16.423,27.583,24.3
								c-7.586-9.676-17.48-19.698-25.866-28.69c-1.24-1.329-2.528-2.718-3.054-4.458c-0.659-2.184-0.009-4.523,0.64-6.71
								c0.859-2.897,1.719-5.794,2.578-8.691c0.221-0.744,0.7-1.999,0.815-2.411c0,0-2.357-0.467-3.184-0.387
								C127.187,271.399,119.641,270.595,116.324,270.918"/>
						</g>
					</g>
				</g>
			</g>
			<g>
				<path style="fill:#263238;" d="M214.203,266.556c0.024,0.004-0.006,0.302-0.085,0.866c-0.099,0.637-0.226,1.451-0.382,2.457
					c-0.371,2.219-0.882,5.276-1.507,9.016c-1.291,7.691-3.05,18.167-4.993,29.741c-1.953,11.618-3.786,22.125-5.2,29.715
					c-0.707,3.795-1.297,6.862-1.731,8.977c-0.211,0.996-0.381,1.802-0.514,2.432c-0.125,0.555-0.203,0.844-0.227,0.839
					c-0.024-0.004,0.006-0.302,0.085-0.865c0.099-0.636,0.225-1.45,0.382-2.456c0.371-2.218,0.882-5.276,1.507-9.015
					c1.291-7.691,3.05-18.168,4.993-29.746c1.952-11.614,3.785-22.12,5.2-29.71c0.707-3.795,1.297-6.863,1.731-8.978
					c0.211-0.996,0.381-1.803,0.514-2.433C214.101,266.841,214.179,266.552,214.203,266.556z"/>
			</g>
			<g>
				<path style="fill:#FF725E;" d="M101.501,241.429c0,0-7.602,2.041-12.986,10.01c-5.987,8.861-16.368,94.813-15.971,100.775
					c0.397,5.962,5.555,21.065,19.47,19.077c13.915-1.987,50.877-27.821,50.877-27.821l-12.718-24.642l-27.026,12.718l3.682-42.578
					L101.501,241.429z"/>
			</g>
			<g style="opacity:0.3;">
				<g>
					<path d="M183.462,363.039c-0.877-3.865-5.673-5.107-9.605-5.608c-21.366-2.727-42.733-5.454-64.099-8.181l-5.558,18.033
						c0.566,4.131,1.152,8.333,2.908,12.115c1.756,3.782,4.892,7.148,8.942,8.139c3.579,0.876,7.316-0.178,10.849-1.224
						c15.715-4.654,31.429-9.307,47.144-13.961c2.345-0.694,4.751-1.42,6.676-2.928
						C182.645,367.917,184.004,365.424,183.462,363.039z"/>
				</g>
			</g>
			<g>
				<g style="opacity:0.3;">
					<g>
						<path d="M104.539,288.664c-0.773-3.049-1.938-6.499-4.866-7.649c-3.118-1.225-6.746,1.049-8.132,4.099
							c-1.386,3.05-1.092,6.575-0.602,9.889c1.702,11.513,5.759,24.296,9.519,35.315l13.155-4.832
							C111.87,313.289,107.568,300.607,104.539,288.664z"/>
					</g>
				</g>
			</g>
			<g>
				<path style="fill:#FF725E;" d="M240.373,278.171l-12.938,38.971l16.798,12.199l13.536,5.437
					c-0.001-0.066,2.529-19.475,1.896-12.702l3.013-40.048L240.373,278.171z"/>
			</g>
			<g>
				<g>
					<path style="fill:#263238;" d="M240.373,278.171c0.035,0.008-0.077,0.623-0.309,1.729c-0.222,1.109-0.607,2.698-1.111,4.655
						c-1.015,3.913-2.725,9.237-4.803,15.035c-2.078,5.8-3.836,11.083-4.94,14.962c-0.548,1.94-0.987,3.512-1.269,4.604
						c-0.293,1.09-0.471,1.689-0.507,1.681c-0.035-0.008,0.077-0.623,0.309-1.728c0.222-1.108,0.607-2.698,1.111-4.655
						c1.015-3.913,2.725-9.238,4.804-15.038c2.077-5.798,3.835-11.081,4.939-14.96c0.548-1.94,0.987-3.512,1.269-4.604
						C240.16,278.763,240.338,278.163,240.373,278.171z"/>
				</g>
			</g>
			<g>
				<g>
					<path style="fill:#263238;" d="M236.147,336.909c-0.055,0.039-0.69-0.736-1.609-2.067c-0.919-1.33-2.107-3.228-3.266-5.409
						c-1.157-2.183-2.063-4.23-2.65-5.737c-0.588-1.507-0.873-2.467-0.81-2.491c0.071-0.027,0.478,0.884,1.149,2.347
						c0.67,1.463,1.622,3.47,2.771,5.637c1.151,2.165,2.279,4.078,3.115,5.453C235.683,336.017,236.21,336.865,236.147,336.909z"/>
				</g>
			</g>
			<g>
				<g>
					<path style="fill:#263238;" d="M101.502,329.013c-0.061,0.135-1.859-0.551-4.091-1.341c-2.231-0.795-4.058-1.397-4.02-1.54
						c0.035-0.135,1.941,0.246,4.195,1.049C99.84,327.98,101.56,328.886,101.502,329.013z"/>
				</g>
			</g>
			<g>
				<g>
					<path style="fill:#263238;" d="M105.569,273.704c-0.034,0.012-0.175-0.296-0.401-0.866c-0.23-0.568-0.525-1.404-0.856-2.448
						c-0.664-2.086-1.419-5.027-1.928-8.335c-0.504-3.31-0.664-6.342-0.655-8.532c0.004-1.095,0.035-1.981,0.084-2.591
						c0.046-0.611,0.088-0.947,0.124-0.946c0.081,0.003,0.074,1.354,0.16,3.53c0.084,2.176,0.301,5.177,0.801,8.46
						c0.505,3.281,1.196,6.209,1.767,8.311C105.234,272.39,105.646,273.677,105.569,273.704z"/>
				</g>
			</g>
			<g style="opacity:0.3;">
				<g>
					<path d="M188.165,281.637c1.579,0.108,3.158,0.216,4.737,0.324c-1.989-2.698-5.63-4.064-8.902-3.339
						c0.105,2.846,3.083,5.072,2.898,7.914c-0.099,1.528-1.106,2.825-2.07,4.016c-3.575,4.417-5.211,6.439-8.786,10.857l0.619,5.441
						c3.605-5.151,7.25-9.947,10.855-15.098c1.101-1.573,2.229-3.208,2.591-5.094C190.469,284.772,189.851,282.556,188.165,281.637z
						"/>
				</g>
			</g>
			<g style="opacity:0.3;">
				<g>
					<path d="M235.106,296.087l1.431-4.212c-2.41,7.233-10.59,12.782-13.278,19.916c-2.257,5.991-1.092,13.143,2.95,18.108
						c0.929,1.141,2.533,2.24,3.747,1.407c0.863-0.593,1.558-1.747,1.168-2.719s-3.193-6.829-3.69-7.75
						c-0.378-0.699,0.461-2.706,1.581-6.473C230.99,307.729,233.132,302.723,235.106,296.087z"/>
				</g>
			</g>
		</g>
		<g>
			<g>
				<path style="fill:#263238;" d="M130.966,181.752c-0.368,12.806,5.069,25.667,14.511,34.326
					c2.162-6.263,4.323-12.526,6.485-18.789"/>
			</g>
			<g>
				<g>
					<path style="fill:#263238;" d="M179.86,144.379c-5.568-3.042-12.293-3.48-18.514-2.234c-6.221,1.246-12.019,4.062-17.51,7.239
						c-3.081,1.783-6.154,3.742-8.368,6.529c-4.042,5.086-8.038,13.439-8.428,19.925c-0.315,5.244,1.693,18.372,3.91,23.135
						c2.034,4.371,11.553,7.698,16.252,8.777l43.115-50.142C188.792,152.038,184.928,147.148,179.86,144.379z"/>
				</g>
				<g>
					<path style="fill:#263238;" d="M187.293,151.142l-10.335-1.848c5.65,13.455,7.182,44.225,10.414,58.456
						c3.81-5.528,12.657-22.365,12.184-29.062C199.082,171.991,199.574,150.001,187.293,151.142z"/>
				</g>
				<g>
					<g>
						<g>
							<g>
								<g>
									<g>
										<g>
											<path style="fill:#FFBE9D;" d="M193.203,173.078c-0.674-10.324-7.543-22.978-17.829-21.867l-23.802,6.072
												c-7.636,1.948-12.725,8.395-13.281,16.256c-0.028,0.392-0.067-0.086-0.061,0.209l5.313,61.636l17.867,35.457l0,0
												l15.768-37.187c0.009-5.027,0.01-9.028,0.012-9.002c0,0,13.187-2.22,15.882-19.438
												C194.412,196.652,193.951,184.548,193.203,173.078z"/>
										</g>
									</g>
								</g>
							</g>
						</g>
					</g>
				</g>
				<g>
					<g>
						<g>
							<g>
								<g>
									<g>
										<g>
											<g>
												<g>
													<g>
														<g>
															<g>
																<g>
																	<g>
																		<g>
																			<path style="fill:#263238;" d="M189.046,186.082c0.044,1.166-0.907,2.164-2.124,2.232
																				c-1.214,0.068-2.236-0.819-2.28-1.985c-0.044-1.166,0.907-2.165,2.121-2.233
																				C187.981,184.027,189.003,184.916,189.046,186.082z"/>
																		</g>
																	</g>
																</g>
															</g>
														</g>
													</g>
												</g>
											</g>
										</g>
									</g>
								</g>
							</g>
						</g>
					</g>
				</g>
				<g>
					<g>
						<g>
							<g>
								<g>
									<g>
										<g>
											<g>
												<g>
													<g>
														<g>
															<g>
																<g>
																	<g>
																		<g>
																			<g>
																				<path style="fill:#263238;" d="M190.619,179.821c-0.273,0.289-1.948-0.945-4.323-0.934
																					c-2.373-0.023-4.113,1.203-4.372,0.913c-0.127-0.128,0.151-0.649,0.909-1.203
																					c0.746-0.552,2.019-1.09,3.499-1.087c1.48,0.005,2.726,0.547,3.442,1.103
																					C190.505,179.172,190.753,179.692,190.619,179.821z"/>
																			</g>
																		</g>
																	</g>
																</g>
															</g>
														</g>
													</g>
												</g>
											</g>
										</g>
									</g>
								</g>
							</g>
						</g>
					</g>
				</g>
				<g>
					<g>
						<g>
							<g>
								<g>
									<g>
										<g>
											<g>
												<g>
													<g>
														<g>
															<g>
																<g>
																	<g>
																		<g>
																			<path style="fill:#263238;" d="M168.436,186.082c0.044,1.165-0.907,2.164-2.124,2.232
																				c-1.214,0.068-2.236-0.82-2.28-1.985c-0.044-1.165,0.907-2.165,2.122-2.233
																				C167.37,184.027,168.392,184.917,168.436,186.082z"/>
																		</g>
																	</g>
																</g>
															</g>
														</g>
													</g>
												</g>
											</g>
										</g>
									</g>
								</g>
							</g>
						</g>
					</g>
				</g>
				<g>
					<g>
						<g>
							<g>
								<g>
									<g>
										<g>
											<g>
												<g>
													<g>
														<g>
															<g>
																<g>
																	<g>
																		<g>
																			<g>
																				<path style="fill:#263238;" d="M168.061,179.821c-0.274,0.288-1.951-0.945-4.325-0.934
																					c-2.372-0.023-4.113,1.203-4.372,0.913c-0.126-0.128,0.148-0.648,0.909-1.203
																					c0.746-0.552,2.019-1.09,3.499-1.088c1.479,0.005,2.725,0.547,3.442,1.103
																					C167.944,179.171,168.194,179.692,168.061,179.821z"/>
																			</g>
																		</g>
																	</g>
																</g>
															</g>
														</g>
													</g>
												</g>
											</g>
										</g>
									</g>
								</g>
							</g>
						</g>
					</g>
				</g>
				<g>
					<g>
						<g>
							<g>
								<g>
									<g>
										<g>
											<g>
												<g>
													<g>
														<g>
															<g>
																<g>
																	<g>
																		<g>
																			<g>
																				<path style="fill:#263238;" d="M175.486,198.477c-0.011-0.135,1.465-0.393,3.857-0.704
																					c0.606-0.064,1.18-0.186,1.281-0.6c0.142-0.439-0.113-1.092-0.409-1.797c-0.574-1.466-1.174-3.004-1.804-4.615
																					c-2.505-6.57-4.321-11.974-4.055-12.072c0.265-0.099,2.512,5.147,5.017,11.717
																					c0.603,1.62,1.18,3.164,1.729,4.642c0.231,0.689,0.628,1.47,0.32,2.38c-0.162,0.454-0.607,0.784-0.995,0.889
																					c-0.388,0.12-0.73,0.127-1.03,0.145C176.99,198.598,175.495,198.612,175.486,198.477z"/>
																			</g>
																		</g>
																	</g>
																</g>
															</g>
														</g>
													</g>
												</g>
											</g>
										</g>
									</g>
								</g>
							</g>
						</g>
					</g>
				</g>
				<g>
					<g>
						<g>
							<g>
								<path style="fill:#EB996E;" d="M154.36,218.527c0,0,5.601,11.822,22.824,10.173l0.005-4.049
									C177.19,224.652,165.847,225.397,154.36,218.527z"/>
							</g>
						</g>
					</g>
				</g>
				<g>
					<g>
						<g>
							<g>
								<g>
									<g>
										<g>
											<g>
												<g>
													<g>
														<g>
															<g>
																<path style="fill:#263238;" d="M167.315,171.238c-0.233,0.646-2.605,0.346-5.391,0.687
																	c-2.794,0.286-5.039,1.107-5.41,0.529c-0.166-0.277,0.225-0.885,1.132-1.513c0.899-0.626,2.335-1.223,4.008-1.413
																	c1.673-0.186,3.205,0.076,4.221,0.486C166.899,170.425,167.415,170.931,167.315,171.238z"/>
															</g>
														</g>
													</g>
												</g>
											</g>
										</g>
									</g>
								</g>
							</g>
						</g>
					</g>
				</g>
				<g>
					<g>
						<g>
							<g>
								<g>
									<g>
										<g>
											<g>
												<g>
													<g>
														<g>
															<g>
																<path style="fill:#263238;" d="M189.844,172.555c-0.417,0.54-2.054-0.016-4.022-0.038
																	c-1.967-0.091-3.633,0.37-4.018-0.193c-0.169-0.274,0.093-0.814,0.82-1.327c0.716-0.51,1.915-0.929,3.268-0.891
																	c1.352,0.04,2.525,0.526,3.21,1.078C189.798,171.737,190.027,172.292,189.844,172.555z"/>
															</g>
														</g>
													</g>
												</g>
											</g>
										</g>
									</g>
								</g>
							</g>
						</g>
					</g>
				</g>
				<g>
					<g>
						<g>
							<g>
								<path style="fill:#263238;" d="M188.527,157.357c-1.053-2.59-3.895-4.145-6.687-4.286c-2.792-0.141-5.519,0.916-7.939,2.315
									c-10.251,5.925-15.519,20.236-25.648,26.367c-2.491,1.508-5.733,0.127-7.852,2.124c-2.119,1.997-3.493,5.189-2.321,7.854
									c-1.361-1.867-2.74-3.767-3.514-5.944c-0.774-2.177-0.871-4.708,0.284-6.709c0.877-1.518,2.424-2.677,2.849-4.378
									c0.374-1.496-0.217-3.061-0.152-4.602c0.066-1.569,0.804-3.024,1.577-4.391c3.967-7.017,9.425-13.363,16.453-17.31
									c4.592-2.578,9.843-4.086,15.106-3.907c5.263,0.179,10.52,2.114,14.372,5.705
									C187.32,152.306,189.702,154.491,188.527,157.357"/>
							</g>
						</g>
					</g>
				</g>
				<g>
					<g>
						<g>
							<g>
								<g>
									<g>
										<g>
											<g>
												<g>
													<g>
														<g>
															<g>
																<g>
																	<g>
																		<g>
																			<g>
																				<g>
																					<g>
																						<path style="fill:#FFBE9D;" d="M140.649,186.01c-0.181-0.494-9.16-3.734-9.279,5.809
																							c-0.115,9.271,9.239,7.446,9.258,7.18C140.646,198.733,140.649,186.01,140.649,186.01z"/>
																					</g>
																				</g>
																			</g>
																		</g>
																	</g>
																</g>
															</g>
														</g>
													</g>
												</g>
											</g>
										</g>
									</g>
								</g>
							</g>
						</g>
					</g>
					<g>
						<g>
							<g>
								<g>
									<g>
										<g>
											<g>
												<g>
													<g>
														<g>
															<g>
																<g>
																	<g>
																		<g>
																			<g>
																				<g>
																					<g>
																						<g>
																							<path style="fill:#EB996E;" d="M137.8,195.46c-0.041-0.03-0.163,0.112-0.437,0.234
																								c-0.267,0.119-0.726,0.199-1.208,0.014c-0.976-0.369-1.786-1.931-1.816-3.603
																								c-0.016-0.844,0.169-1.646,0.474-2.308c0.29-0.676,0.732-1.146,1.226-1.229
																								c0.492-0.109,0.838,0.19,0.949,0.452c0.122,0.26,0.061,0.445,0.11,0.461c0.026,0.023,0.2-0.154,0.129-0.537
																								c-0.036-0.185-0.143-0.404-0.359-0.584c-0.221-0.183-0.547-0.279-0.891-0.244
																								c-0.716,0.043-1.365,0.694-1.701,1.421c-0.375,0.73-0.602,1.631-0.584,2.579
																								c0.042,1.869,0.982,3.626,2.318,4.026c0.651,0.176,1.197-0.015,1.48-0.231
																								C137.782,195.684,137.832,195.477,137.8,195.46z"/>
																						</g>
																					</g>
																				</g>
																			</g>
																		</g>
																	</g>
																</g>
															</g>
														</g>
													</g>
												</g>
											</g>
										</g>
									</g>
								</g>
							</g>
						</g>
					</g>
				</g>
				<g>
					<g>
						<g>
							<g>
								<g>
									<path style="fill:#455A64;" d="M136.96,181.245c0.007,0.013,0.2-0.095,0.56-0.312c0.354-0.225,0.902-0.526,1.555-0.988
										c1.296-0.937,3.093-2.421,5.005-4.556c1.924-2.123,3.938-4.878,6.121-7.951c2.188-3.066,4.589-6.461,7.651-9.527
										c1.56-1.497,3.199-2.842,4.937-3.901c1.734-1.068,3.551-1.854,5.333-2.42c3.57-1.149,6.998-1.4,9.821-1.206
										c2.835,0.177,5.078,0.779,6.579,1.29c0.762,0.231,1.325,0.487,1.717,0.637c0.391,0.153,0.599,0.228,0.606,0.214
										c0.006-0.013-0.19-0.113-0.571-0.292c-0.382-0.175-0.938-0.457-1.697-0.714c-1.494-0.561-3.747-1.214-6.612-1.433
										c-2.853-0.235-6.33-0.013-9.961,1.133c-1.813,0.564-3.663,1.356-5.43,2.437c-1.773,1.074-3.44,2.438-5.019,3.954
										c-3.1,3.103-5.502,6.525-7.672,9.603c-2.166,3.087-4.144,5.845-6.027,7.978c-1.87,2.145-3.62,3.65-4.879,4.622
										c-0.634,0.48-1.164,0.801-1.502,1.049C137.13,181.1,136.953,181.232,136.96,181.245z"/>
								</g>
							</g>
						</g>
					</g>
				</g>
				<g>
					<g>
						<g>
							<g>
								<g>
									<path style="fill:#FFFFFF;" d="M136.747,197.098c-0.903-0.168-1.881,0.46-2.105,1.351
										c-0.224,0.891,0.342,1.906,1.217,2.185c0.875,0.279,1.924-0.223,2.257-1.079c0.332-0.856-0.103-1.934-0.936-2.319"/>
								</g>
							</g>
						</g>
					</g>
					<g>
						<g>
							<g>
								<g>
									<g>
										<path style="fill:#263238;" d="M137.179,197.236c-0.053,0.055,0.605,0.321,0.834,1.245
											c0.107,0.441,0.049,1.027-0.362,1.455c-0.389,0.428-1.093,0.694-1.728,0.496c-0.632-0.205-1.053-0.83-1.123-1.404
											c-0.088-0.587,0.203-1.099,0.546-1.397c0.722-0.621,1.412-0.458,1.401-0.533c0.005-0.023-0.142-0.096-0.435-0.102
											c-0.288-0.007-0.729,0.081-1.157,0.405c-0.421,0.305-0.829,0.93-0.743,1.672c0.068,0.713,0.554,1.487,1.382,1.763
											c0.835,0.254,1.68-0.097,2.147-0.639c0.499-0.556,0.527-1.302,0.361-1.794c-0.162-0.511-0.471-0.838-0.71-0.999
											C137.351,197.24,137.188,197.214,137.179,197.236z"/>
									</g>
								</g>
							</g>
						</g>
					</g>
				</g>
			</g>
			<g>
				<path style="fill:#263238;" d="M139.292,183.868c-0.145,2.532-0.262,5.206,0.908,7.456c1.17,2.25,4.12,3.781,6.322,2.522
					c1.796-1.027,2.333-3.327,2.638-5.373c0.879-5.905,1.282-11.874,2.212-17.771L139.292,183.868z"/>
			</g>
			<g>
				<path style="fill:#EB996E;" d="M169.648,202.987c-0.893,1.17-1.173,2.783-0.725,4.185c0.448,1.402,1.612,2.554,3.018,2.989
					c0.561,0.173,1.18,0.235,1.729,0.027c0.97-0.367,1.453-1.429,1.838-2.392c0.32-0.8,0.64-1.6,0.96-2.401
					c0.107-0.269,0.215-0.577,0.09-0.838c-0.134-0.281-0.476-0.384-0.779-0.457c-1.984-0.478-3.968-0.956-5.951-1.434"/>
			</g>
			<g>
				<g>
					<path style="fill:#263238;" d="M173.54,209.898c-0.005,0.059-1.053,0.181-2.704-0.339c-0.804-0.279-1.784-0.855-2.369-1.925
						c-0.298-0.513-0.429-1.227-0.363-1.842c0.041-0.631,0.186-1.285,0.471-1.903c0.275-0.598,0.665-1.126,1.119-1.548l0.156-0.145
						l0.198,0.07c3.94,1.39,7.022,2.094,6.99,2.262c-0.026,0.173-3.204-0.253-7.219-1.6l0.354-0.076
						c-0.384,0.369-0.713,0.821-0.95,1.335c-0.452,1.064-0.631,2.295-0.174,3.143c0.45,0.893,1.253,1.447,1.972,1.759
						C172.501,209.691,173.567,209.767,173.54,209.898z"/>
				</g>
			</g>
			<g>
				<g>
					<path style="fill:#455A64;" d="M186.244,152.947c-0.01,0.054-0.819-0.155-2.305-0.202c-1.477-0.04-3.66,0.156-6.136,1.121
						c-1.233,0.48-2.545,1.118-3.843,1.979c-1.301,0.859-2.626,1.888-3.965,3.028c-2.66,2.298-5.414,5.063-7.764,8.369
						c-1.177,1.654-2.221,3.354-3.351,4.928c-1.12,1.58-2.366,3.007-3.717,4.179c-2.695,2.342-5.471,3.983-7.835,5.241
						c-2.372,1.254-4.355,2.132-5.723,2.739c-0.646,0.275-1.171,0.499-1.586,0.676c-0.365,0.148-0.561,0.219-0.568,0.202
						c-0.008-0.016,0.173-0.118,0.524-0.298c0.404-0.2,0.915-0.453,1.544-0.764c1.34-0.663,3.296-1.591,5.633-2.879
						c2.328-1.293,5.057-2.952,7.693-5.278c1.313-1.157,2.519-2.552,3.619-4.116c1.11-1.558,2.151-3.26,3.341-4.933
						c2.384-3.355,5.175-6.133,7.877-8.433c1.363-1.142,2.706-2.165,4.042-3.025c1.335-0.863,2.684-1.494,3.949-1.962
						c2.542-0.94,4.777-1.082,6.273-0.979c0.752,0.049,1.33,0.15,1.715,0.239C186.049,152.873,186.248,152.93,186.244,152.947z"/>
				</g>
			</g>
			<g>
				<g>
					<path style="fill:#455A64;" d="M139.036,178.142c0.015,0.028-0.275,0.222-0.82,0.553c-0.635,0.373-1.417,0.832-2.348,1.378
						c-0.254,0.146-0.518,0.297-0.791,0.453c-0.295,0.162-0.62,0.304-1.014,0.336c-0.194,0.011-0.424-0.007-0.628-0.148
						c-0.202-0.136-0.331-0.368-0.347-0.612c-0.019-0.487,0.242-0.845,0.438-1.172c0.836-1.338,1.752-2.805,2.726-4.363l0.367,0.342
						c-0.869,0.644-1.881,1.158-2.979,1.486c-1.102,0.33-2.235,0.455-3.318,0.391c-0.266-0.009-0.564-0.045-0.841-0.144
						c-0.271-0.096-0.586-0.281-0.719-0.627c-0.138-0.338-0.008-0.713,0.155-0.937c0.162-0.239,0.362-0.414,0.529-0.58
						c1.378-1.333,2.411-2.737,3.157-3.982c1.488-2.508,1.911-4.305,2.008-4.269c0.029,0.008-0.049,0.458-0.292,1.248
						c-0.251,0.785-0.673,1.912-1.397,3.206c-0.72,1.293-1.744,2.754-3.14,4.141c-0.346,0.327-0.689,0.704-0.555,0.996
						c0.11,0.292,0.638,0.436,1.124,0.439c1.024,0.054,2.096-0.068,3.14-0.38c1.04-0.311,2.001-0.794,2.826-1.397l1.107-0.81
						l-0.74,1.152c-0.993,1.546-1.928,3.001-2.78,4.328c-0.214,0.321-0.407,0.638-0.394,0.905c0.012,0.263,0.237,0.418,0.534,0.395
						c0.601-0.031,1.145-0.439,1.666-0.686c0.96-0.494,1.767-0.908,2.421-1.245C138.701,178.255,139.02,178.114,139.036,178.142z"/>
				</g>
			</g>
		</g>
		<g>
			<g>
				<path style="fill:#E0E0E0;" d="M92.812,285.963l16.856,88.645c0.675,3.55,4.104,5.878,7.653,5.195l64.751-12.464
					c3.556-0.685,5.877-4.131,5.174-7.684l-17.84-90.158c-0.711-3.591-4.232-5.897-7.808-5.114l-63.766,13.977
					C94.376,279.118,92.151,282.488,92.812,285.963z"/>
			</g>
			<g>
				<g>
					<path style="fill:#FFBE9D;" d="M135.984,318.725l5.383-2.679c0,0,1.751-9.236,4.595-12.496c2.845-3.26,7.031-7.011,7.001-7.885
						c-0.03-0.874,1.314-6.973,1.314-6.973s2.51-2.188,3.006,2.188c0.496,4.377,0,7.659,0,7.659s15.11-3.763,16.861-4.201
						c1.751-0.438,3.932-0.266,3.713,1.484c-0.219,1.751-1.154,2.655-2.502,3.744c-0.868,0.701-1.601,0.943-1.601,0.943
						s2.803,2.587,2.803,5.132c0,2.545,2.886,8.436,0.26,11.281c-2.626,2.845-14.662,11.379-21.008,12.473
						s-7.895,2.974-10.841,6.739L135.984,318.725z"/>
				</g>
				<g>
					<g>
						<path style="fill:#EB996E;" d="M158.691,298.213c0.073,0.135-1.929,1.309-4.188,3.042c-2.268,1.724-3.927,3.347-4.038,3.24
							c-0.101-0.088,1.414-1.899,3.722-3.654C156.486,299.078,158.632,298.092,158.691,298.213z"/>
					</g>
				</g>
				<g>
					<g>
						<path style="fill:#EB996E;" d="M174.748,300.004c0.059,0.14-1.741,0.948-4.044,1.654c-2.3,0.705-4.148,1.283-4.201,1.157
							c-0.059-0.14,1.741-0.948,4.044-1.654C172.846,300.456,174.695,299.878,174.748,300.004z"/>
					</g>
				</g>
			</g>
			<g>
				<polygon style="fill:#FF725E;" points="98.411,331.371 135.544,315.635 149.465,343.405 98.411,369.44 				"/>
			</g>
			<g>
				<g>
					<path style="fill:#263238;" d="M134.834,316.493c0.053,0.133-9.981,4.268-22.409,9.234
						c-12.433,4.968-22.551,8.885-22.605,8.752c-0.053-0.134,9.979-4.268,22.411-9.235
						C124.66,320.277,134.781,316.359,134.834,316.493z"/>
				</g>
			</g>
			<g style="opacity:0.3;">
				<g>
					<path d="M100.857,329.664c-4.51,0.895-8.934,2.227-13.188,3.971c-1.734,0.711-3.466,1.507-4.888,2.727
						c-1.422,1.22-2.517,2.929-2.628,4.8c1.141-0.681,2.484-1.101,3.422-2.042c4.21-4.227,11.483-6.693,17.647-9.035
						L100.857,329.664z"/>
				</g>
			</g>
		</g>
	</g>
</g>
<g id="Desk">
	<g>
		<g>
			<path style="fill:#263238;" d="M466.664,452.398c0,0.144-97.012,0.26-216.654,0.26c-119.684,0-216.674-0.117-216.674-0.26
				s96.991-0.26,216.674-0.26C369.652,452.137,466.664,452.254,466.664,452.398z"/>
		</g>
	</g>
</g>
</svg>
